<?xml version="1.0" standalone="no"?>
<!DOCTYPE svg PUBLIC "-//W3C//DTD SVG 1.1//EN" "http://www.w3.org/Graphics/SVG/1.1/DTD/svg11.dtd" >
<svg xmlns="http://www.w3.org/2000/svg" xmlns:xlink="http://www.w3.org/1999/xlink" version="1.1">
<metadata>
Created by FontForge 20160405 at Fri Aug 11 06:22:02 2017
 By www-data
</metadata>
<defs>
<font id="Baksoda" horiz-adv-x="312" >
  <font-face 
    font-family="Baksoda"
    font-weight="400"
    font-stretch="normal"
    units-per-em="1000"
    panose-1="0 0 0 0 0 0 0 0 0 0"
    ascent="750"
    descent="-250"
    x-height="346"
    cap-height="631"
    bbox="-338.146 -496.155 2889.27 804.145"
    underline-thickness="50"
    underline-position="-100"
    stemh="77"
    stemv="73"
    unicode-range="U+000D-20AC"
  />
<missing-glyph horiz-adv-x="500" 
 />
    <glyph glyph-name="t_t" unicode="tt" horiz-adv-x="326" 
d="M532 534c130 0 154 -37 154 -64s-39 -53 -50 -46c-10 7 28 44 -4 44c-4 0 -83 -5 -177 -11c-54 -75 -126 -190 -198 -362c44 34 100 77 108 85c34 32 36 -23 -3 -60c-26 -24 -124 -120 -144 -120h-3h-1c-29 0 -37 35 -37 60c0 17 2 36 5 55c-47 -43 -127 -115 -143 -115
h-2h-1c-30 0 -38 35 -38 60c0 105 74 259 147 381h-12c-79 0 -148 16 -148 66c0 40 51 59 59 53c17 -11 -51 -49 32 -49c19 0 63 2 118 5c46 70 86 116 98 116c14 0 78 -32 78 -51c0 -8 -15 -26 -41 -57c17 1 34 2 50 3c44 63 80 105 91 105c14 0 78 -32 78 -51
c0 -7 -12 -22 -33 -47h17zM203 192c29 85 77 179 126 258c-21 -1 -41 -3 -60 -4c-53 -74 -122 -186 -190 -351c42 33 98 76 124 97z" />
    <glyph glyph-name="t_h" unicode="th" horiz-adv-x="559" 
d="M618 424c-10 7 28 44 -4 44c-4 0 -67 -4 -147 -9c-48 -65 -109 -161 -172 -298c79 82 211 189 240 189c35 0 73 -24 73 -44c0 -15 -92 -122 -120 -214c17 13 99 76 111 88c34 32 36 -23 -3 -60c-25 -24 -129 -120 -155 -120c-10 0 -31 15 -31 77c0 54 25 123 53 179
c-199 -162 -219 -229 -221 -237v-1v0c-2 -13 -5 -18 -18 -18c-29 0 -37 35 -37 60c0 20 2 41 7 63c-45 -41 -135 -123 -152 -123h-3h-1c-29 0 -37 35 -37 60c0 105 73 260 147 382c-14 -1 -26 -1 -33 -1c-79 0 -148 16 -148 66c0 40 51 59 59 53c17 -11 -51 -49 32 -49
c21 0 75 3 139 7c47 68 86 114 97 114c15 0 78 -32 78 -51c0 -8 -14 -25 -39 -55c20 1 39 2 57 3c44 62 79 103 90 103c14 0 78 -32 78 -51c0 -8 -12 -22 -33 -47c120 -2 143 -38 143 -64c0 -27 -40 -53 -50 -46zM216 201c29 83 77 174 124 250c-23 -1 -45 -2 -67 -3
c-54 -75 -123 -187 -191 -352c49 38 118 91 134 105z" />
    <glyph glyph-name="S_t" unicode="St" horiz-adv-x="625" 
d="M923 546c10 10 41 -3 41 -30c0 -32 -10 -97 -233 -70c-53 -75 -122 -186 -190 -350c44 33 100 77 108 84c33 33 36 -23 -4 -60c-22 -21 -106 -103 -136 -117l-1 -1c-1 0 -2 0 -2 -1h-1c-1 0 -3 -1 -4 -1h-1h-2c-29 0 -38 36 -38 61c0 108 79 269 155 393
c-13 0 -25 -1 -37 -3c-11 -64 -51 -101 -90 -101c-29 0 -48 24 -48 51c0 53 28 83 67 101c-2 47 -9 74 -33 74c-39 0 -76 -122 -93 -226c-102 -509 -237 -472 -237 -472s-3 283 -102 283c-25 0 -19 -12 -27 -20c-7 -7 -15 -8 -15 13c0 20 43 36 71 36
c125 0 132 -122 132 -122c104 156 70 565 256 565c46 0 106 -30 119 -114c27 3 54 3 80 2c46 67 85 112 96 112c14 0 78 -32 78 -52c0 -9 -21 -31 -53 -72c221 -21 135 27 144 37z" />
    <glyph glyph-name=".notdef" horiz-adv-x="500" 
 />
    <glyph glyph-name="NULL" horiz-adv-x="0" 
 />
    <glyph glyph-name="NULL" horiz-adv-x="0" 
 />
    <glyph glyph-name="CR" unicode="&#xd;" horiz-adv-x="500" 
 />
    <glyph glyph-name="space" unicode=" " horiz-adv-x="294" 
 />
    <glyph glyph-name="e" unicode="e" horiz-adv-x="273" 
d="M314 178c44 36 19 -14 10 -25c-36 -54 -137 -153 -233 -153c-55 0 -91 46 -91 107c0 121 146 239 217 239c39 0 72 -21 72 -72c0 -39 -62 -135 -136 -135c-23 0 -38 14 -45 27c-13 -21 -33 -79 10 -87c76 -14 152 63 196 99zM229 273c-29 0 -76 -37 -107 -84
c58 9 133 84 107 84z" />
    <glyph glyph-name="f" unicode="f" horiz-adv-x="223" 
d="M239 482c39 0 107 -24 81 -57c-21 -28 -126 -136 -242 -333c63 3 93 32 167 89c38 28 40 -18 0 -55c-20 -18 -94 -88 -140 -92c62 -155 -108 -343 -181 -334c-29 4 -60 34 -60 89c0 200 328 693 375 693zM-56 -196c0 0 185 93 105 236c-37 -68 -73 -147 -105 -236z" />
    <glyph glyph-name="g" unicode="g" horiz-adv-x="340" 
d="M375 177c30 27 43 -15 -3 -60c-44 -41 -102 -86 -160 -130c-83 -147 -173 -291 -205 -291c-40 0 -76 42 -76 99c0 50 72 108 171 179c21 40 60 109 81 151c-37 -51 -85 -122 -129 -128c-46 -6 -79 40 -79 96c0 100 116 255 241 255c29 0 44 -23 51 -43c3 4 32 43 38 43
c35 0 73 -24 73 -44c0 -4 -45 -97 -105 -208c33 25 68 53 102 81zM75 92c47 -3 136 119 179 196c-5 2 -9 2 -15 2c-88 0 -204 -195 -164 -198zM-25 -216c14 0 38 31 67 80c-66 -48 -102 -80 -67 -80z" />
    <glyph glyph-name="h" unicode="h" horiz-adv-x="396" 
d="M413 179c34 33 36 -23 -3 -60c-25 -23 -129 -120 -155 -120c-10 0 -31 15 -31 77c0 54 25 124 53 179c-199 -162 -220 -229 -221 -237c0 0 0 -1 -1 -1v0v0c-2 -13 -4 -18 -18 -18c-29 0 -37 35 -37 60c0 189 205 496 237 496c14 0 78 -32 78 -51c0 -24 -72 -48 -206 -344
c79 83 210 190 240 190c35 0 73 -25 73 -45c0 -14 -92 -121 -121 -214c17 13 100 77 112 88z" />
    <glyph glyph-name="i" unicode="i" horiz-adv-x="170" 
d="M188 179c33 32 36 -23 -3 -60c-25 -23 -119 -119 -145 -119c-10 0 -40 3 -40 77c0 106 97 271 125 271c34 0 67 -20 67 -40c0 -15 -86 -125 -115 -217c18 13 99 76 111 88zM243 527c45 6 66 -14 69 -32c5 -37 -15 8 -93 -125c0 0 -43 15 -47 44c-4 30 43 109 71 113z" />
    <glyph glyph-name="j" unicode="j" horiz-adv-x="168" 
d="M242 527c45 6 66 -14 69 -32c5 -37 -15 8 -93 -125c0 0 -43 15 -47 44c-4 30 43 109 71 113zM194 179c32 25 44 -16 -3 -60c-43 -42 -99 -86 -157 -129c-82 -146 -172 -287 -204 -287c-39 0 -75 40 -75 97c0 47 65 123 168 176c163 263 186 373 214 373
c33 0 59 -17 59 -38c0 -4 -45 -104 -103 -214c35 27 68 54 101 82zM-201 -211c13 0 55 54 81 101c-61 -47 -115 -101 -81 -101z" />
    <glyph glyph-name="k" unicode="k" horiz-adv-x="344" 
d="M234 83c28 -4 78 44 140 96c25 21 33 -26 -1 -61c-55 -64 -112 -118 -157 -120c-48 -2 -78 69 -92 115c-24 -11 -51 -60 -57 -82c-7 -28 -11 -33 -30 -33c-29 0 -37 36 -37 61c0 199 199 494 230 494c15 0 78 -33 78 -52c0 -23 -55 -37 -185 -310c61 68 161 158 196 158
c49 0 65 -91 46 -91c-15 0 -16 14 -38 14c-40 0 -91 -41 -147 -98c9 -33 28 -87 54 -91z" />
    <glyph glyph-name="l" unicode="l" horiz-adv-x="176" 
d="M197 187c33 32 27 -29 -13 -66c-20 -19 -116 -121 -147 -121c-29 0 -37 37 -37 61c0 167 203 492 235 492c14 0 62 -26 62 -45s-119 -134 -208 -401c4 -9 100 72 108 80z" />
    <glyph glyph-name="m" unicode="m" horiz-adv-x="555" 
d="M579 179c34 33 36 -23 -3 -60c-25 -23 -128 -119 -154 -119c-10 0 -31 15 -31 77c0 46 18 103 41 153c-131 -108 -179 -202 -188 -220c-3 -7 -6 -10 -16 -10c-29 0 -37 35 -37 60c0 60 18 120 40 171c-125 -105 -168 -195 -177 -219c-3 -8 -6 -12 -17 -12
c-29 0 -37 35 -37 60c0 141 101 289 123 289c36 0 79 -28 79 -57c0 -13 -36 -29 -94 -141c77 95 175 197 206 198v0c36 0 79 -28 79 -57c0 -13 -37 -29 -96 -144c81 96 188 201 219 201c35 0 72 -25 72 -45c0 -14 -91 -120 -120 -213c17 13 99 77 111 88z" />
    <glyph glyph-name="n" unicode="n" horiz-adv-x="385" 
d="M400 179c34 32 37 -23 -3 -60c-25 -23 -128 -119 -154 -119c-10 0 -31 15 -31 77c0 46 18 103 41 153c-141 -115 -195 -212 -201 -223c-2 -5 -6 -7 -15 -7c-29 0 -37 35 -37 60c0 141 101 289 123 289c36 0 79 -28 79 -57c0 -14 -37 -29 -97 -147c84 97 201 204 232 204
c35 0 72 -25 72 -45c0 -14 -91 -120 -120 -213c17 13 99 76 111 88z" />
    <glyph glyph-name="o" unicode="o" horiz-adv-x="296" 
d="M341 237c32 28 12 -54 -10 -77c-35 -36 -62 -55 -84 -65c-39 -56 -92 -95 -142 -95c-34 0 -105 25 -105 104c0 56 33 118 57 118c7 0 13 0 18 -1c15 74 75 127 149 127c49 0 80 -44 80 -89c0 -26 -5 -52 -13 -78c17 15 34 33 50 56zM212 304c-37 0 -81 -49 -81 -108
c0 -35 23 -49 49 -54c36 71 58 162 32 162zM89 65c17 -17 39 -3 60 26c-23 6 -42 16 -55 32c-9 -25 -14 -49 -5 -58z" />
    <glyph glyph-name="p" unicode="p" horiz-adv-x="313" 
d="M284 346c29 0 46 -28 46 -72c0 -48 -80 -274 -180 -274c-48 0 -71 60 -50 80c9 10 10 -3 17 -3c81 0 134 194 134 194s-127 -74 -218 -275c-31 -70 -65 -154 -101 -254c-11 -31 4 -41 -4 -43c-18 -5 -57 22 -57 72c0 155 226 574 241 574c35 0 72 -24 72 -44
c0 -6 -13 -27 -36 -69c53 64 104 114 136 114z" />
    <glyph glyph-name="q" unicode="q" horiz-adv-x="351" 
d="M400 305c0 -17 -232 -400 -253 -559c-4 -31 8 -41 -4 -41c-27 0 -52 23 -52 73c0 78 56 222 113 346c-39 -57 -92 -123 -125 -123c-46 0 -79 40 -79 95c0 100 115 254 240 254c28 0 44 -25 50 -45c18 22 30 37 37 45c35 0 73 -25 73 -45zM100 95c17 0 118 121 177 194
c-3 2 -8 3 -15 3c-87 0 -202 -197 -162 -197z" />
    <glyph glyph-name="r" unicode="r" horiz-adv-x="281" 
d="M301 179c33 32 36 -23 -4 -60c-25 -23 -127 -119 -153 -119c-10 0 -31 15 -31 77c0 46 46 152 69 202c0 0 -15 -3 -35 -5c-33 -49 -87 -109 -156 -171c-20 -20 -35 27 -6 48c35 27 77 80 108 125c-25 6 -45 20 -45 51c0 50 40 104 100 104c46 0 59 -35 35 -93
c19 5 38 11 54 11v-1c35 0 72 -25 72 -45c0 -14 -91 -120 -119 -212c17 13 99 76 111 88zM127 376c-25 0 -39 -40 -2 -46c13 27 16 46 2 46z" />
    <glyph glyph-name="s" unicode="s" horiz-adv-x="208" 
d="M234 178c44 37 24 -32 -4 -59c-19 -19 -44 -41 -72 -62c-1 -91 -13 -178 -98 -178c-57 0 -97 121 -121 121c-21 0 -16 31 10 36c-2 15 5 30 9 30c9 0 10 -15 43 -15c21 0 44 7 69 18c1 42 0 90 -1 129c-27 -32 -59 -64 -95 -97c-20 -20 -38 29 -9 51c34 27 79 80 113 130
c18 43 57 65 76 65c36 0 96 -15 21 -91c-20 -20 -20 -75 -18 -137c32 22 59 45 77 59zM53 -33c6 6 10 21 13 42c-18 -6 -37 -9 -56 -9h-9c19 -23 38 -47 52 -33z" />
    <glyph glyph-name="t" unicode="t" horiz-adv-x="163" 
d="M322 527c86 15 132 -31 132 -57c0 -27 -26 -53 -33 -46s18 43 -3 43c-4 0 -85 -14 -155 -21c-54 -75 -113 -183 -183 -351c44 33 100 77 108 84c33 33 36 -23 -4 -60c-22 -21 -106 -103 -136 -117c0 0 -6 -2 -11 -2c-29 0 -37 35 -37 60c0 105 73 259 146 381h-1
c-53 0 -99 16 -99 66c0 40 34 58 40 53c11 -12 -35 -49 21 -49c16 0 51 3 89 8c46 67 64 84 76 84c14 0 68 -25 68 -45c0 -7 2 -6 -18 -31z" />
    <glyph glyph-name="u" unicode="u" horiz-adv-x="395" 
d="M410 178c34 32 36 -23 -3 -60c-25 -23 -128 -119 -154 -119c-10 0 -31 15 -31 77c0 23 5 49 12 75c-59 -74 -141 -152 -188 -152c-10 0 -46 30 -46 78c0 108 101 270 123 270c36 0 79 -27 79 -56c0 -9 -131 -197 -105 -197c40 0 220 253 250 253c35 0 72 -24 72 -44
c0 -14 -91 -120 -120 -213c17 13 99 77 111 88z" />
    <glyph glyph-name="v" unicode="v" horiz-adv-x="270" 
d="M325 348c0 -126 -208 -348 -279 -348c-10 0 -46 30 -46 78c0 108 101 270 123 270c36 0 64 -15 64 -44c0 -9 -120 -194 -90 -210c40 0 174 197 174 268c0 47 -21 40 -12 50c17 17 66 -16 66 -64z" />
    <glyph glyph-name="w" unicode="w" horiz-adv-x="434" 
d="M422 406c17 17 65 -15 65 -62c0 -125 -205 -344 -275 -344c-9 0 -42 27 -45 70c-45 -39 -92 -70 -121 -70c-10 0 -46 30 -46 77c0 106 100 267 122 267c35 0 77 -27 77 -56c0 -8 -129 -195 -103 -195c39 0 86 93 121 153v0c28 56 60 98 71 98c36 0 78 -27 78 -56
c0 -8 -129 -195 -104 -195c40 0 172 194 172 264c0 47 -21 40 -12 49z" />
    <glyph glyph-name="x" unicode="x" horiz-adv-x="376" 
d="M386 179c41 34 31 -31 -3 -60c-28 -24 -129 -120 -170 -120c-23 0 -60 37 -91 93c-55 -53 -99 -102 -109 -124c-12 -26 -48 40 -32 63c35 50 72 95 109 135c-13 38 -21 80 -21 123c0 42 84 74 81 60c-4 -22 0 -66 10 -111c76 70 140 111 167 111c67 0 90 -49 90 -59
c0 -19 -9 -28 -18 -28c-8 0 3 19 -7 19c-39 0 -125 -61 -206 -131c16 -43 36 -75 55 -75c12 0 122 84 145 104z" />
    <glyph glyph-name="y" unicode="y" horiz-adv-x="371" 
d="M409 179c30 26 43 -16 -4 -59c-42 -42 -99 -86 -157 -128c-82 -146 -170 -287 -202 -287c-39 0 -75 40 -75 97c0 48 67 104 161 171c37 68 67 117 93 170c-56 -68 -142 -142 -184 -142c-11 0 -46 29 -46 77c0 108 101 269 123 269c35 0 78 -27 78 -56
c0 -8 -131 -197 -104 -197c38 0 208 185 245 252c1 1 2 1 2 1c35 0 72 -24 72 -44c0 -5 -44 -95 -104 -205c33 26 68 52 102 81zM15 -211c13 0 34 31 61 77c-61 -45 -94 -77 -61 -77z" />
    <glyph glyph-name="z" unicode="z" 
d="M208 97c30 0 53 -26 53 -48s-35 -52 -45 -41c-10 10 32 37 7 37c-32 0 -175 -46 -203 -46c-11 0 -20 25 -20 57c0 47 281 221 281 221s-103 -6 -203 -63c-27 -16 -41 76 -1 101c17 10 159 31 184 31c24 0 71 -15 71 -75c0 0 15 -20 15 -35c0 0 -116 -38 -228 -148
c20 5 48 9 89 9z" />
    <glyph glyph-name="a" unicode="a" horiz-adv-x="377" 
d="M391 179c33 33 36 -23 -4 -59c-25 -24 -128 -120 -153 -120c-10 0 -32 16 -32 77c0 16 2 34 6 52c-40 -58 -95 -129 -129 -129c-46 0 -79 41 -79 95c0 101 115 254 239 254c26 0 41 -20 49 -39c16 24 31 39 39 39c35 0 72 -24 72 -44c0 -15 -91 -121 -119 -214
c17 14 99 77 111 88zM99 94c25 0 170 188 173 192c1 1 2 2 3 4c-4 1 -8 1 -13 1c-87 0 -203 -197 -163 -197z" />
    <glyph glyph-name="b" unicode="b" 
d="M292 349c40 0 53 -40 47 -98c-8 -81 -120 -253 -184 -253c-49 0 -72 63 -51 83c10 10 10 -5 18 -2c56 19 170 196 132 189c0 0 -144 -116 -198 -251c-1 -3 -1 -20 -19 -19c-29 2 -48 30 -49 55c-3 93 160 396 237 498c9 11 90 -36 78 -52c-48 -61 -124 -195 -171 -291
c55 70 121 141 160 141z" />
    <glyph glyph-name="c" unicode="c" horiz-adv-x="281" 
d="M220 350c40 0 74 -22 74 -64c0 -58 -42 -88 -82 -88c-34 0 -34 26 -20 26c51 0 79 52 41 52c-49 0 -144 -102 -144 -177c0 -103 224 75 230 80c44 37 25 -33 -4 -60c-48 -46 -133 -121 -222 -121c-56 0 -93 48 -93 109c0 123 149 243 220 243z" />
    <glyph glyph-name="d" unicode="d" horiz-adv-x="385" 
d="M409 181c34 32 36 -23 -3 -60c-23 -21 -107 -105 -137 -119c-4 -3 -11 -3 -11 -3c-29 0 -37 38 -37 63c0 32 7 68 19 107c-50 -76 -119 -168 -161 -168c-46 0 -79 41 -79 95c0 101 115 255 240 255c26 0 41 -21 49 -40c17 30 62 127 143 241c8 12 85 -32 77 -50
c-21 -45 -110 -140 -208 -406c44 34 100 77 108 85zM100 95c30 0 121 121 175 196c-4 1 -7 2 -12 2c-88 0 -203 -198 -163 -198z" />
    <glyph glyph-name="A" unicode="A" horiz-adv-x="562" 
d="M793 581c0 -17 -167 -216 -276 -407c50 -53 11 -89 0 -78c-4 4 6 11 0 16c-6 6 -15 11 -26 14c-39 -76 -66 -148 -65 -203c0 -31 15 -19 18 -22c7 -7 5 -24 -22 -24c-29 0 -56 34 -56 103c0 42 15 95 37 153c-53 0 -112 -5 -152 -5h-13c-106 -125 -189 -256 -189 -358
c0 -29 21 -24 21 -27s-2 -17 -15 -17c-33 0 -44 51 -44 101c0 86 55 198 132 311c-68 15 -143 50 -143 133c0 200 388 362 526 362c28 0 49 -10 64 -21c21 13 37 21 46 21c23 0 36 -15 42 -35c18 22 31 35 37 35c14 0 78 -33 78 -52zM46 265c0 -19 71 -47 146 -57
c94 124 207 243 297 324c-237 -11 -443 -185 -443 -267zM307 205c50 1 93 4 127 1c42 90 98 183 148 260c-74 -64 -178 -158 -275 -261z" />
    <glyph glyph-name="B" unicode="B" horiz-adv-x="527" 
d="M672 494c0 -106 -148 -217 -252 -274c41 -16 74 -45 74 -91c0 -152 -200 -251 -334 -251c-88 0 -126 112 -115 123c10 10 23 -41 92 -41c127 0 305 107 305 170c0 24 -20 39 -61 39c-39 0 -67 -12 -77 -12c-14 0 -25 33 -25 53c-11 18 -15 37 -15 37
c-54 -67 -100 -140 -100 -198c0 -33 16 -20 20 -23c7 -8 -3 -25 -23 -25c-31 0 -49 32 -49 83c0 149 225 410 248 410c32 0 68 -34 68 -54c0 -15 -90 -98 -164 -193c0 1 338 129 338 260c0 41 -53 56 -99 56c-249 0 -445 -179 -445 -277c0 -26 7 -47 7 -47s-65 16 -65 90
c0 136 231 307 482 307c133 0 190 -91 190 -142z" />
    <glyph glyph-name="C" unicode="C" horiz-adv-x="416" 
d="M586 632c10 0 61 -13 61 -50c0 -26 -64 -11 -181 -160c-8 -11 -25 5 -25 31c0 22 13 51 32 79c-198 -62 -398 -374 -398 -554c0 -33 7 -38 20 -38c71 0 220 151 220 188c0 16 -4 22 0 26c7 6 47 -30 47 -78c0 -60 -148 -195 -232 -195c-82 0 -130 61 -130 146
c0 237 288 605 472 605c23 0 47 -13 65 -28c20 17 38 28 49 28z" />
    <glyph glyph-name="D" unicode="D" horiz-adv-x="617" 
d="M505 633c175 0 203 -134 203 -184c0 -239 -394 -570 -584 -570c-65 0 -161 51 -110 102c16 15 7 -36 69 -36c187 0 557 337 557 566c0 25 -32 49 -86 49c-25 0 -50 -2 -75 -6c7 -8 11 -16 11 -23c0 -25 -314 -363 -314 -482c0 -33 16 -20 20 -23c7 -8 -3 -25 -23 -25
c-31 0 -49 32 -49 83c0 110 152 334 240 441c-158 -57 -282 -170 -282 -241c0 -26 8 -46 8 -46s-65 16 -65 90c0 135 230 305 480 305z" />
    <glyph glyph-name="E" unicode="E" horiz-adv-x="574" 
d="M669 634c80 0 85 -104 77 -112s-6 12 -31 12c-238 0 -453 -163 -453 -193c0 -20 194 -40 235 -40c26 0 41 -87 21 -93c-293 -66 -418 -223 -418 -223s185 92 351 92c93 0 99 -58 99 -83c0 -37 -14 -34 -14 -34s-5 39 -86 39c-283 0 -396 -122 -413 -122s-37 37 -37 78
c0 136 381 312 381 312s-191 -7 -191 83c0 126 339 284 479 284z" />
    <glyph glyph-name="F" unicode="F" horiz-adv-x="401" 
d="M644 633c94 0 118 -88 110 -96c-19 -19 -14 13 -61 13c-108 0 -215 -23 -312 -40c-37 -49 -90 -120 -142 -198c21 3 42 4 68 4c90 0 113 -84 105 -91c-18 -19 -14 11 -58 11c-71 0 -115 -10 -173 -14c-67 -109 -120 -219 -119 -297c0 -31 16 -19 19 -22
c7 -7 4 -24 -22 -24c-29 0 -56 34 -56 103c0 63 32 152 77 244c-39 11 -80 36 -80 76c0 13 12 24 23 14c6 -7 -13 -21 61 -21c11 0 22 0 32 1c38 70 81 139 119 196c-6 0 -13 -1 -19 -1c-126 0 -192 54 -192 113s83 112 162 112c18 0 15 -28 0 -28c-44 0 -123 -41 -123 -84
c0 -19 33 -34 110 -34c33 0 78 6 129 14c24 31 42 49 49 49c9 0 41 -14 61 -30c88 15 176 30 232 30z" />
    <glyph glyph-name="G" unicode="G" horiz-adv-x="427" 
d="M589 632c10 0 61 -13 61 -50c0 -26 -65 -10 -182 -160c-8 -11 -26 5 -26 31c0 22 14 51 33 79c-199 -62 -400 -376 -400 -557c0 -32 8 -38 21 -38c71 0 225 166 225 203v11c-38 -3 -88 -18 -147 -58c-32 -21 -26 71 1 95c18 15 173 56 223 0c33 -38 10 -53 10 -53
s-23 15 -64 17c12 -15 24 -38 24 -64c0 -60 -153 -210 -238 -210c-81 0 -130 62 -130 146c0 239 289 608 474 608c23 0 47 -13 66 -28c20 17 38 28 49 28z" />
    <glyph glyph-name="H" unicode="H" horiz-adv-x="662" 
d="M609 208c8 -5 15 -11 21 -17c19 -19 13 -65 6 -72s-3 12 -12 21c-11 11 -25 19 -41 26c-50 -84 -89 -171 -88 -242c0 -32 16 -19 19 -22c7 -7 4 -24 -22 -24c-30 0 -56 33 -56 103c0 58 23 131 56 203c-66 4 -144 -5 -215 -19c-50 -90 -87 -177 -86 -241
c0 -32 16 -19 19 -22c7 -7 4 -24 -22 -24c-29 0 -56 33 -56 103c0 43 15 98 38 157c-47 -14 -82 -29 -92 -40c-15 -14 -25 47 8 80c20 20 66 38 125 51c59 120 138 244 196 323c-202 -37 -350 -183 -350 -268c0 -26 8 -46 8 -46s-65 16 -65 89c0 136 230 306 480 306v0
c14 0 78 -32 78 -52c0 -15 -127 -168 -231 -333c66 6 135 5 193 -7c80 153 191 292 211 292c14 0 78 -32 78 -51c0 -16 -110 -136 -200 -274z" />
    <glyph glyph-name="I" unicode="I" horiz-adv-x="334" 
d="M190 -73c0 -32 15 -19 18 -22c7 -7 5 -24 -21 -24c-29 0 -56 33 -56 102c0 145 171 428 273 567c-200 -36 -347 -181 -347 -265c0 -26 7 -46 7 -46s-64 15 -64 89c0 134 228 303 477 303c14 0 78 -32 78 -51c0 -26 -368 -453 -365 -653z" />
    <glyph glyph-name="J" unicode="J" horiz-adv-x="480" 
d="M604 632c14 0 78 -32 78 -51c0 -15 -292 -703 -559 -703c-70 0 -123 61 -123 147c0 79 94 95 110 79c12 -12 -33 -23 -33 -99c0 -44 19 -73 47 -73c153 0 345 441 434 623c-215 -28 -376 -182 -376 -271c0 -26 7 -46 7 -46s-65 15 -65 89c0 135 230 305 480 305z" />
    <glyph glyph-name="K" unicode="K" horiz-adv-x="551" 
d="M790 549c0 -42 -216 -253 -427 -348c35 -63 158 -275 243 -275c23 0 21 16 25 20s12 2 12 -13c0 -28 -49 -55 -78 -55c-111 0 -263 245 -290 291c-9 -3 -17 -5 -25 -7c-41 -76 -69 -148 -68 -203c0 -30 15 -18 17 -21c7 -7 5 -23 -20 -23c-28 0 -53 32 -53 98
c0 39 12 89 33 143c-62 4 -90 29 -90 48c0 12 5 14 9 14c6 0 6 -17 42 -17c20 0 40 3 61 7c57 126 144 264 206 348c-192 -35 -332 -174 -332 -255c0 -24 7 -44 7 -44s-62 15 -62 85c0 129 219 291 457 291c13 0 74 -31 74 -49c0 -15 -132 -173 -233 -338
c208 93 413 305 413 358c0 23 -15 29 -6 29c44 0 85 -30 85 -84z" />
    <glyph glyph-name="L" unicode="L" horiz-adv-x="480" 
d="M478 -11c134 0 154 -85 146 -93c-3 -3 -17 23 -63 23c-123 0 -224 -15 -304 -34c-4 -3 -10 -5 -18 -5c-134 -35 -203 -83 -209 -90c-19 -19 -42 71 -23 89c28 28 97 53 177 72c-1 10 -2 20 -2 32c0 145 172 430 274 569c-201 -37 -348 -182 -348 -267c0 -26 7 -46 7 -46
s-65 16 -65 89c0 136 230 305 479 305c15 0 78 -32 78 -51c0 -24 -327 -405 -362 -618c82 16 169 25 233 25z" />
    <glyph glyph-name="M" unicode="M" horiz-adv-x="867" 
d="M747 -75c0 -31 16 -19 19 -22c6 -7 4 -24 -22 -24c-29 0 -56 33 -56 102c0 101 57 227 118 328c-179 -167 -302 -401 -311 -420c-1 0 -1 -1 -1 -1v0v0c-3 -5 -10 -9 -23 -9c-29 0 -56 33 -56 102c0 100 81 266 165 404c-337 -329 -368 -492 -368 -492v0
c-1 -7 -8 -14 -25 -14c-29 0 -55 33 -55 102c0 146 171 430 274 570c-201 -37 -349 -182 -349 -267c0 -26 8 -46 8 -46s-65 15 -65 89c0 135 229 305 479 305c14 0 77 -32 77 -52s-233 -295 -327 -508c138 215 432 560 533 560c14 0 78 -32 78 -52
c0 -21 -253 -318 -338 -534c121 188 341 435 441 435c14 0 78 -32 78 -51c0 -26 -277 -304 -274 -505z" />
    <glyph glyph-name="N" unicode="N" horiz-adv-x="648" 
d="M527 -76c0 -32 15 -20 18 -23c7 -6 5 -23 -22 -23c-29 0 -56 33 -56 102c0 115 105 313 200 461c-433 -372 -454 -548 -454 -548v0c0 -7 -6 -15 -25 -15c-29 0 -56 33 -56 102c0 147 172 432 275 572c-202 -37 -350 -183 -350 -268c0 -26 8 -46 8 -46s-65 15 -65 89
c0 136 230 306 481 306c14 0 78 -32 78 -52s-226 -286 -323 -498c144 209 478 550 580 550c14 0 78 -32 78 -52c0 -25 -371 -455 -367 -657z" />
    <glyph glyph-name="O" unicode="O" horiz-adv-x="580" 
d="M465 632c125 0 166 -127 166 -214c0 -251 -253 -540 -403 -540c-30 0 -109 30 -109 132c0 21 3 43 7 64c-66 33 -126 94 -126 195c0 166 266 363 465 363zM227 -83c77 0 313 298 313 518c0 109 -26 137 -63 137c-136 0 -401 -207 -401 -317c0 -32 22 -76 70 -110
c40 111 114 205 137 205c33 0 78 -32 78 -52c0 -18 -81 -87 -129 -191c26 -7 56 -11 90 -11c21 0 22 19 22 19s12 -74 -87 -74c-13 0 -30 1 -48 5c-8 -28 -13 -59 -13 -90c0 -26 11 -39 31 -39z" />
    <glyph glyph-name="P" unicode="P" horiz-adv-x="516" 
d="M479 633c133 0 190 -91 190 -141c0 -150 -230 -342 -363 -342c-34 0 -65 17 -81 33c-50 -83 -91 -175 -91 -258c0 -31 16 -19 19 -22c7 -7 4 -24 -22 -24c-30 0 -56 34 -56 103c0 186 221 507 253 507c14 0 77 -32 77 -51c0 -15 -86 -107 -161 -224
c114 13 356 161 356 291c0 41 -53 55 -99 55c-248 0 -444 -177 -444 -275c0 -26 8 -46 8 -46s-65 15 -65 89c0 135 229 305 479 305z" />
    <glyph glyph-name="Q" unicode="Q" horiz-adv-x="594" 
d="M300 -147c102 0 112 -83 107 -88c-8 -8 -8 15 -54 15c-202 0 -268 -69 -275 -76c-12 -12 -30 72 -19 83c45 45 166 66 241 66zM476 633c125 0 166 -127 166 -214c0 -251 -253 -539 -403 -539c-29 0 -108 29 -108 131c0 29 4 58 11 87c-69 20 -142 78 -142 171
c0 166 278 364 476 364zM238 -82c78 0 314 298 314 518c0 109 -30 137 -52 137c-153 0 -413 -207 -413 -317c0 -27 23 -63 82 -80c41 98 105 175 125 175c33 0 78 -32 78 -52c0 -14 -49 -59 -94 -128c110 21 190 120 194 127c6 9 -2 9 0 11c10 10 39 -19 20 -53
c-36 -64 -125 -149 -256 -164c-17 -40 -29 -86 -29 -135c0 -26 12 -39 31 -39z" />
    <glyph glyph-name="R" unicode="R" horiz-adv-x="521" 
d="M672 492c0 -151 -231 -344 -365 -344c-7 0 -14 1 -20 2c49 -86 161 -263 241 -263c24 0 22 18 26 22c5 4 13 2 13 -15c0 -28 -52 -56 -82 -56c-98 0 -229 197 -287 294c-36 -69 -63 -142 -63 -210c0 -31 15 -19 18 -22c7 -7 5 -24 -22 -24c-29 0 -56 34 -56 103
c0 187 222 510 254 510c14 0 78 -32 78 -52c0 -14 -86 -107 -162 -225c114 13 358 162 358 293c0 41 -53 56 -99 56c-250 0 -446 -179 -446 -278c0 -26 7 -46 7 -46s-65 16 -65 90c0 136 231 306 482 306c133 0 190 -91 190 -141z" />
    <glyph glyph-name="T" unicode="T" horiz-adv-x="398" 
d="M760 635c144 0 182 -64 182 -89c0 -34 -36 -39 -44 -31c-12 12 50 34 -90 34c-55 0 -148 -15 -247 -32c-98 -134 -326 -433 -323 -592c0 -32 16 -19 19 -22c7 -7 4 -24 -22 -24c-30 0 -56 33 -56 103c0 126 128 356 230 507c-88 -16 -168 -28 -216 -28
c-126 0 -193 44 -193 102c0 61 65 92 116 92c31 0 53 -23 36 -40c-5 -5 0 13 -21 13c-44 0 -91 -25 -91 -54c0 -19 32 -34 110 -34c59 0 200 28 335 54c21 26 37 41 42 41c9 0 33 -11 53 -24c76 14 142 24 180 24z" />
    <glyph glyph-name="U" unicode="U" horiz-adv-x="650" 
d="M518 -76c0 -32 16 -20 19 -23c7 -7 5 -24 -22 -24c-29 0 -56 34 -56 103c0 57 22 129 54 202c-95 -119 -255 -305 -325 -305c-29 0 -56 34 -56 103c0 147 172 432 275 572c-201 -37 -349 -182 -349 -268c0 -26 7 -46 7 -46s-65 15 -65 89c0 136 230 306 481 306
c14 0 78 -32 78 -51c0 -25 -334 -424 -357 -634c94 35 469 512 469 512l-1 -1c42 59 76 98 86 98c14 0 78 -32 78 -52c0 -26 -319 -379 -316 -581z" />
    <glyph glyph-name="V" unicode="V" horiz-adv-x="594" 
d="M686 664c37 37 97 -33 97 -66c0 -143 -356 -552 -431 -694c0 0 -12 -26 -33 -26c-32 0 -69 8 -69 81c0 145 105 440 172 580c-209 -29 -366 -179 -366 -266c0 -25 7 -45 7 -45s-63 15 -63 87c0 133 225 299 469 299c14 0 77 -31 77 -50c0 -21 -161 -323 -210 -535
c124 169 367 482 367 613c0 20 -39 0 -17 22z" />
    <glyph glyph-name="W" unicode="W" horiz-adv-x="760" 
d="M815 660c37 38 97 -32 97 -65c0 -142 -317 -549 -391 -690c0 0 -12 -26 -33 -26c-29 0 -98 33 -98 100c0 15 0 29 1 44c-47 -66 -95 -121 -126 -138c-2 -3 -6 -4 -12 -5c-2 -1 -4 -1 -5 -1h-1h-2c-28 0 -72 23 -72 82c0 144 146 435 233 574
c-201 -32 -350 -177 -350 -261c0 -26 7 -45 7 -45s-63 15 -63 87c0 131 223 297 467 297c13 0 75 -32 75 -51c0 -23 -264 -396 -291 -603c119 130 152 198 196 279v0c28 61 59 100 74 100c34 0 75 -31 75 -50c0 -22 -100 -137 -121 -299c104 154 357 508 357 649
c0 20 -39 0 -17 22z" />
    <glyph glyph-name="X" unicode="X" horiz-adv-x="680" 
d="M918 635c77 0 106 -125 78 -125c-13 0 -14 42 -37 42c-63 0 -241 -176 -406 -348c61 -150 122 -282 162 -282c22 0 7 39 16 39c10 0 25 -98 -16 -98c-69 0 -152 129 -225 275c-130 -138 -240 -258 -255 -258c-49 0 -70 120 -70 181c0 75 112 70 81 39
c-26 -26 -22 -137 -10 -137c6 0 100 115 218 250c-77 167 -134 331 -134 331s-259 -176 -259 -322c0 -21 74 8 74 8s-23 -44 -74 -44c-42 0 -61 34 -61 79c0 95 181 370 372 370c20 0 81 -172 148 -347c154 171 327 347 398 347z" />
    <glyph glyph-name="Y" unicode="Y" horiz-adv-x="656" 
d="M756 631c14 0 77 -32 77 -52c0 -15 -291 -702 -558 -702c-70 0 -102 60 -102 122c0 79 67 95 83 79c12 -12 -33 -23 -33 -99c0 -34 16 -59 45 -59c118 0 263 269 365 476c-87 -96 -212 -230 -267 -230c-29 0 -82 10 -82 79c0 76 69 217 126 305
c-203 -35 -353 -182 -353 -268c0 -25 8 -46 8 -46s-65 16 -65 90c0 135 229 305 479 305c30 0 71 -47 71 -67c0 -26 -181 -221 -181 -342c0 -39 191 167 363 375v0c11 21 19 34 24 34z" />
    <glyph glyph-name="Z" unicode="Z" horiz-adv-x="533" 
d="M771 524c0 0 38 -42 30 -46c-326 -157 -702 -499 -702 -499s218 75 324 75c105 0 149 -58 149 -82s-70 -107 -84 -94c-13 13 69 105 11 105s-406 -105 -438 -105s-61 34 -61 64c0 79 316 372 699 588c36 20 -314 28 -506 -122c-37 -29 -19 96 23 127c43 32 239 96 439 96
c107 0 116 -107 116 -107z" />
    <glyph glyph-name="S" unicode="S" horiz-adv-x="406" 
d="M459 633c51 0 121 -39 121 -148c0 -85 -47 -135 -93 -135c-28 0 -57 14 -47 24c64 64 63 202 33 202c-39 0 -76 -122 -92 -226c-102 -509 -237 -471 -237 -471s-3 282 -102 282c-25 0 -19 -12 -27 -20c-7 -7 -15 -8 -15 13s43 36 71 36c125 0 132 -122 132 -122
c103 156 70 565 256 565z" />
    <glyph glyph-name="one" unicode="1" horiz-adv-x="209" 
d="M265 633c29 0 92 -38 78 -52c-10 -10 -267 -343 -267 -535c0 -31 15 -19 18 -22c7 -7 5 -24 -22 -24c-29 0 -72 41 -72 95c0 106 80 274 153 394c-32 -10 -61 -12 -75 2c-40 39 -33 99 -16 82c32 -32 187 60 203 60z" />
    <glyph glyph-name="two" unicode="2" horiz-adv-x="445" 
d="M505 507c0 -135 -146 -294 -303 -391c48 6 98 4 124 -22c71 -71 -37 -131 -37 -103c0 14 30 6 11 26c-35 34 -213 -19 -243 -19c-43 0 -67 83 -53 96c50 0 419 237 419 426c0 43 -14 59 -32 59c-49 0 -155 -78 -155 -182c0 -21 18 -11 18 -19c0 -21 -92 -14 -92 65
c0 95 107 190 204 190c85 0 139 -48 139 -126z" />
    <glyph glyph-name="three" unicode="3" horiz-adv-x="410" 
d="M465 521c0 -99 -75 -182 -151 -222c41 -19 57 -53 57 -78c0 -108 -123 -223 -256 -223c-175 0 -124 210 -22 210c71 0 73 -68 63 -68s6 10 -16 10c-35 0 -140 -92 -35 -92c91 0 190 105 190 170c0 36 -36 46 -69 46h-2c-54 3 -60 76 -47 89c49 -49 222 35 222 186
c0 10 -5 30 -28 30c-65 0 -177 -92 -177 -151c0 -14 11 -8 14 -11c3 -4 -3 -14 -22 -14c-29 0 -60 22 -60 60c0 85 122 170 226 170c57 0 113 -44 113 -112z" />
    <glyph glyph-name="four" unicode="4" horiz-adv-x="498" 
d="M434 633c28 0 91 -38 77 -52c-6 -6 -100 -127 -175 -265c29 -15 47 -36 47 -64c0 -54 -58 -90 -58 -70c0 9 10 2 10 18c0 21 -14 35 -35 45c-32 -70 -56 -139 -56 -196c0 -32 16 -20 19 -22c7 -7 4 -24 -22 -24c-29 0 -72 40 -72 94c0 46 16 105 40 165
c-73 2 -156 -15 -178 -37c-9 -9 -51 58 -19 91c0 0 274 227 274 294c0 11 -22 23 1 23c28 0 54 -31 54 -75c0 -50 -67 -133 -155 -211c20 0 39 -2 59 -4c72 149 172 290 189 290z" />
    <glyph glyph-name="oe" unicode="&#x153;" horiz-adv-x="569" 
d="M341 237c32 28 12 -54 -10 -77c-35 -36 -62 -55 -84 -65c-39 -56 -92 -95 -142 -95c-34 0 -105 25 -105 104c0 56 33 118 57 118c7 0 13 0 18 -1c15 74 75 127 149 127c49 0 80 -44 80 -89c0 -26 -5 -52 -13 -78c17 15 34 33 50 56zM212 304c-37 0 -81 -49 -81 -108
c0 -35 23 -49 49 -54c36 71 58 162 32 162zM89 65c17 -17 39 -3 60 26c-23 6 -42 16 -55 32c-9 -25 -14 -49 -5 -58zM610 178c44 36 19 -14 10 -25c-36 -54 -137 -153 -233 -153c-55 0 -91 46 -91 107c0 121 146 239 217 239c39 0 72 -21 72 -72c0 -39 -62 -135 -136 -135
c-23 0 -38 14 -45 27c-13 -21 -33 -79 10 -87c76 -14 152 63 196 99zM525 273c-29 0 -76 -37 -107 -84c58 9 133 84 107 84z" />
    <glyph glyph-name="braceright" unicode="}" horiz-adv-x="390" 
d="M329 705c39 0 85 -41 85 -112c0 -73 -43 -109 -43 -199c0 -75 20 -109 20 -109s-79 -43 -112 -103c-31 -60 -91 -236 -201 -236c-66 0 -98 86 -54 86c11 0 -13 -29 8 -24c45 11 77 39 106 107c84 198 175 201 175 201s-45 26 -45 106c0 106 52 133 52 214
c0 18 -5 31 -12 41c-3 8 -11 -16 -18 -16c-16 0 4 44 39 44z" />
    <glyph glyph-name="Scaron" unicode="&#x160;" horiz-adv-x="406" 
d="M459 633c51 0 121 -39 121 -148c0 -85 -47 -135 -93 -135c-28 0 -57 14 -47 24c64 64 63 202 33 202c-39 0 -76 -122 -92 -226c-102 -509 -237 -471 -237 -471s-3 282 -102 282c-25 0 -19 -12 -27 -20c-7 -7 -15 -8 -15 13s43 36 71 36c125 0 132 -122 132 -122
c103 156 70 565 256 565z" />
    <glyph glyph-name="five" unicode="5" horiz-adv-x="410" 
d="M488 603c0 -39 -54 -101 -194 -72c-24 -33 -69 -93 -100 -132c10 2 21 3 33 3c82 0 147 -65 147 -141c0 -114 -93 -261 -245 -261c-191 0 -141 210 -35 210c70 0 75 -67 63 -67c-10 0 4 10 -16 10c-37 0 -139 -91 -35 -91c98 0 195 107 195 213c0 43 -32 58 -72 58
c-54 0 -88 -37 -96 -37s-46 43 -39 50s-23 34 -23 44c115 139 154 243 166 243c19 0 73 -28 133 -28c75 0 106 17 106 25c0 3 12 -3 12 -27z" />
    <glyph glyph-name="six" unicode="6" horiz-adv-x="451" 
d="M390 633c81 0 93 -101 71 -101c-19 0 1 17 -19 17c-82 0 -201 -95 -280 -207c18 6 37 10 57 10c49 0 119 -36 119 -123c0 -125 -119 -230 -210 -230c-71 0 -128 59 -128 137c0 245 280 497 390 497zM208 309c-55 0 -90 -45 -110 -87c-12 -32 -19 -63 -19 -92
c0 -66 24 -81 40 -81c63 0 138 95 138 189c0 32 -22 71 -49 71z" />
    <glyph glyph-name="seven" unicode="7" horiz-adv-x="457" 
d="M391 633c29 0 92 -38 78 -52c-10 -11 -393 -440 -393 -539c0 -32 16 -19 19 -22c7 -7 4 -24 -22 -24c-30 0 -73 38 -73 83c0 81 178 324 295 459c-78 -10 -146 -16 -170 7c-39 39 -24 102 -8 85c33 -32 258 3 274 3z" />
    <glyph glyph-name="nine" unicode="9" horiz-adv-x="328" 
d="M374 633c12 0 95 -19 70 -71c-221 -400 -305 -563 -367 -563c-75 0 -98 95 -57 95c4 0 9 -4 3 -11c-8 -7 2 -32 21 -32c17 0 112 148 188 295c-26 -19 -57 -32 -90 -32c-27 0 -97 17 -97 93c0 107 144 226 263 226c32 0 48 -9 57 -19c6 12 9 19 9 19zM317 515v0
c8 16 15 30 21 43c-2 11 -9 19 -22 19c-122 0 -256 -210 -155 -210c72 0 156 148 156 148z" />
    <glyph glyph-name="eight" unicode="8" horiz-adv-x="346" 
d="M410 500c0 -75 -57 -129 -140 -181c20 -55 38 -111 38 -161c0 -81 -77 -158 -174 -158c-72 0 -134 58 -134 132c0 93 76 173 164 226c-19 49 -36 94 -36 127c0 97 82 148 152 148c52 0 130 -43 130 -133zM220 170c0 30 -11 67 -24 105l-6 -3c-49 -32 -110 -78 -110 -164
c0 -33 19 -60 58 -60c42 0 82 41 82 122zM243 394c47 31 94 76 94 131c0 20 -11 57 -48 57c-39 0 -69 -28 -69 -80c0 -32 10 -69 23 -108z" />
    <glyph glyph-name="zero" unicode="0" horiz-adv-x="416" 
d="M333 633c52 0 106 -47 106 -167c0 -235 -177 -466 -312 -466c-72 0 -131 64 -127 178c6 172 148 455 333 455zM128 58h-4c121 0 342 517 203 517c-58 0 -243 -215 -243 -428c0 -59 21 -89 44 -89z" />
    <glyph glyph-name="exclam" unicode="!" horiz-adv-x="240" 
d="M50 90c37 0 67 -22 67 -33c0 -13 -36 -40 -61 -132c0 0 -56 0 -56 37c0 28 32 128 50 128zM342 633c14 0 78 -33 78 -52c0 -26 -116 -104 -269 -435c-20 -45 -14 -46 -27 -46c-38 0 -69 29 -59 67c74 217 249 466 277 466z" />
    <glyph glyph-name="grave" unicode="`" horiz-adv-x="163" 
d="M76 696c22 0 24 -11 17 -19c-14 -14 14 -115 50 -151c0 0 -28 -32 -56 -32c-33 0 -87 104 -87 157c0 20 26 45 76 45z" />
    <glyph glyph-name="underscore" unicode="_" horiz-adv-x="445" 
d="M39 43h295c34 0 72 -51 72 -75c0 -8 -6 -11 -21 -11h-285c-29 0 -79 43 -79 69c0 9 4 17 18 17z" />
    <glyph glyph-name="plus" unicode="+" horiz-adv-x="452" 
d="M344 230c31 0 65 -45 65 -67c0 -8 -5 -10 -19 -10h-162c-40 -71 -77 -138 -80 -141c-6 -13 -11 -16 -18 -12c-19 11 -55 44 -40 71c1 3 21 37 47 82h-66c-26 0 -71 38 -71 62c0 8 4 15 16 15h165c42 72 82 142 84 146c6 10 14 10 21 6c20 -12 49 -38 36 -61
c-1 -2 -23 -41 -51 -91h73z" />
    <glyph glyph-name="question" unicode="?" horiz-adv-x="226" 
d="M50 91c37 0 67 -22 67 -32c0 -14 -36 -41 -61 -132c0 0 -56 0 -56 36c0 28 32 128 50 128zM257 633c86 0 146 -59 146 -136c0 -159 -182 -164 -249 -361c-7 -19 -10 -35 -26 -35c0 0 -65 3 -53 61c60 188 240 216 240 358c0 43 -23 59 -40 59c-50 0 -147 -78 -147 -181
c0 -22 18 -12 18 -19c0 -22 -92 -15 -92 64c0 95 107 190 203 190z" />
    <glyph glyph-name="comma" unicode="," horiz-adv-x="154" 
d="M69 69c41 0 63 -21 63 -37c0 -44 -72 -109 -93 -109c-29 0 -39 20 -39 20c54 53 63 94 55 111c-4 8 -4 15 14 15z" />
    <glyph glyph-name="period" unicode="." horiz-adv-x="130" 
d="M39 69c37 0 68 -22 68 -33c0 -13 -28 -26 -51 -93c0 0 -56 -4 -56 37c0 28 21 89 39 89z" />
    <glyph glyph-name="semicolon" unicode=";" horiz-adv-x="171" 
d="M69 90c41 0 63 -20 63 -37c0 -43 -72 -108 -93 -108c-29 0 -39 20 -39 20c54 53 63 94 55 110c-4 8 -4 15 14 15zM172 279c37 0 67 -22 67 -33c0 -13 -28 -26 -50 -93c0 0 -57 -4 -57 37c0 28 22 89 40 89z" />
    <glyph glyph-name="colon" unicode=":" horiz-adv-x="140" 
d="M136 279c37 0 68 -22 68 -33c0 -13 -29 -26 -51 -93c0 0 -56 -4 -56 37c0 28 21 89 39 89zM39 101c37 0 68 -22 68 -32c0 -14 -29 -26 -51 -93c0 0 -56 -4 -56 36c0 28 21 89 39 89z" />
    <glyph glyph-name="hyphen" unicode="-" horiz-adv-x="383" 
d="M283 205c31 0 65 -45 65 -67c0 -8 -5 -10 -19 -10h-258c-26 0 -71 38 -71 62c0 8 4 15 16 15h267z" />
    <glyph glyph-name="equal" unicode="=" horiz-adv-x="341" 
d="M355 279c28 0 58 -46 58 -67c0 -8 -4 -11 -17 -11h-229c-24 0 -64 39 -64 63c0 8 4 15 15 15h237zM252 77c27 0 58 -45 58 -67c0 -8 -5 -10 -17 -10h-229c-24 0 -64 39 -64 62c0 8 3 15 14 15h238z" />
    <glyph glyph-name="slash" unicode="/" horiz-adv-x="469" 
d="M551 629c14 0 78 -32 78 -51c0 -26 -288 -205 -534 -560c-11 -15 -7 -22 -19 -22c-39 0 -76 37 -60 67c244 324 508 566 535 566z" />
    <glyph glyph-name="numbersign" unicode="#" horiz-adv-x="615" 
d="M511 332c35 -8 70 -49 70 -70c0 -9 -7 -11 -24 -11h-92c-12 -23 -26 -46 -39 -70h2c39 0 81 -48 81 -71c0 -9 -6 -11 -24 -11h-105c-27 -49 -47 -84 -49 -87c-7 -13 -12 -17 -19 -12c-20 11 -59 47 -43 76c1 1 5 9 13 23h-129c-27 -49 -47 -84 -49 -87
c-7 -13 -12 -17 -19 -12c-20 11 -59 47 -43 76c0 1 7 12 17 30c-29 14 -59 41 -59 59c0 9 4 16 20 16h82c13 23 27 48 42 73c-33 9 -73 42 -73 63c0 9 5 17 20 17h98c39 67 71 122 72 125c7 12 16 11 23 7c22 -12 52 -41 38 -65c-1 -2 -16 -29 -37 -67h132
c38 67 70 122 72 125c6 12 15 11 22 7c22 -12 52 -41 38 -65c-1 -2 -16 -29 -38 -69zM329 181c13 22 27 46 40 70h-131c-13 -23 -26 -46 -39 -70h130z" />
    <glyph glyph-name="quotedbl" unicode="&#x22;" horiz-adv-x="208" 
d="M69 696c41 0 63 -20 63 -36c0 -44 -72 -109 -93 -109c-29 0 -39 20 -39 20c54 53 63 94 55 110c-4 8 -4 15 14 15zM183 696c41 0 63 -20 63 -36c0 -44 -72 -109 -93 -109c-29 0 -39 20 -39 20c54 53 63 94 55 110c-4 8 -4 15 14 15z" />
    <glyph glyph-name="quotesingle" unicode="'" horiz-adv-x="131" 
d="M85 696c41 0 63 -20 63 -36c0 -44 -72 -109 -93 -109c-29 0 -39 20 -39 20c54 53 63 94 55 110c-4 8 -4 15 14 15z" />
    <glyph glyph-name="parenleft" unicode="(" horiz-adv-x="198" 
d="M338 627c-90 0 -323 -445 -218 -628c12 -11 14 2 23 -8c10 -10 -24 -46 -55 -46c-30 0 -88 68 -88 208c0 242 227 543 277 543c63 0 102 -62 92 -73c-11 -10 -15 4 -31 4z" />
    <glyph glyph-name="parenright" unicode=")" horiz-adv-x="357" 
d="M269 701c62 0 87 -75 87 -153c0 -255 -223 -604 -318 -604c-39 0 -69 57 -69 66s0 8 30 8c122 0 312 476 237 623c-8 8 -19 2 -25 8c-9 9 10 52 58 52z" />
    <glyph glyph-name="asterisk" unicode="*" horiz-adv-x="187" 
d="M187 619c4 -4 -9 -50 -19 -41c-3 4 5 3 0 7c-9 9 -23 16 -40 21c12 -20 22 -37 22 -43c0 -16 -38 -45 -51 -32c-6 6 3 6 3 12c0 10 -7 23 -17 38c-22 -16 -45 -28 -63 -28c-8 0 -20 27 -20 36c0 2 21 9 48 26c-23 1 -40 -1 -43 -4c-9 -9 -10 19 0 28c2 3 14 6 31 8
c-7 11 -11 21 -11 28c0 15 21 26 47 26c14 0 22 -9 17 -14c-4 -4 0 -16 7 -31c9 10 18 22 26 35c4 7 -2 10 3 10c11 0 38 -25 38 -44c0 -2 -5 -9 -13 -18c14 -4 26 -11 35 -20z" />
    <glyph glyph-name="at" unicode="@" horiz-adv-x="632" 
d="M568 368c0 39 -34 114 -136 114c-150 0 -359 -178 -359 -379c0 -56 18 -152 53 -152c85 0 124 62 138 48c16 -16 -61 -88 -116 -88c-84 0 -148 105 -148 222c0 200 199 415 387 415c160 0 245 -98 245 -231c0 -136 -128 -261 -233 -261c-23 0 -58 14 -58 73
c0 15 2 32 6 49c-38 -55 -90 -122 -122 -122c-44 0 -75 38 -75 90c0 95 109 240 226 240c25 0 39 -19 46 -37c16 23 30 37 37 37c33 0 69 -23 69 -42c0 -14 -87 -114 -114 -202c23 0 154 87 154 226zM244 145c23 0 163 181 163 181v0c1 1 2 2 3 4c-4 1 -7 1 -12 1
c-83 0 -192 -186 -154 -186z" />
    <glyph glyph-name="dollar" unicode="$" horiz-adv-x="406" 
d="M517 646c0 -11 -21 -30 -65 -80c7 -18 11 -37 11 -55c0 -70 -29 -113 -67 -113c-24 0 -48 11 -39 19c28 29 43 63 47 93c-28 -35 -62 -79 -102 -134c-1 -28 -3 -58 -3 -92c-6 -253 -108 -279 -152 -279c-26 0 -49 9 -69 24c-9 -15 -18 -30 -27 -46c-9 -18 -56 6 -48 22
l36 66c-53 79 -56 203 15 203c12 0 21 -7 10 -18c-10 -10 1 -65 19 -111c45 73 92 145 138 211c13 141 28 277 142 277c22 0 41 -8 55 -20c32 36 54 56 63 56c14 0 36 -12 36 -23zM146 84c34 34 51 90 61 153c-29 -44 -60 -93 -93 -147c11 -12 23 -16 32 -6zM369 585
c-27 0 -45 -34 -56 -102c27 36 53 68 75 95c-5 5 -12 7 -19 7z" />
    <glyph glyph-name="percent" unicode="%" horiz-adv-x="506" 
d="M538 629c-27 0 -291 -241 -534 -566c-16 -30 21 -66 60 -66c12 0 8 6 19 21c246 355 533 534 533 560c0 19 -63 51 -78 51zM226 603c0 0 69 -18 69 -68c0 -69 -84 -131 -136 -131c-28 0 -85 20 -85 96s81 134 114 134c28 0 38 -31 38 -31zM143 452c67 0 115 129 77 129
c-51 0 -118 -129 -77 -129zM401 201c0 0 70 -18 70 -68c0 -69 -84 -131 -137 -131c-27 0 -84 20 -84 96s81 134 114 134c28 0 37 -31 37 -31zM319 50c66 0 115 129 77 129c-51 0 -118 -129 -77 -129z" />
    <glyph glyph-name="ampersand" unicode="&#x26;" horiz-adv-x="480" 
d="M537 303c7 0 60 -11 60 -78c0 -60 -55 -123 -197 -135c-15 -92 -166 -214 -274 -214c-62 0 -126 48 -126 120c0 189 222 280 222 280s-43 13 -43 88c0 116 193 267 322 267c60 0 104 -39 104 -81c0 -47 -62 -102 -97 -102s-51 33 -38 33c32 0 90 79 58 79
c-127 0 -310 -276 -233 -251c83 27 153 -24 94 -45c-120 -42 -287 -147 -287 -269c0 -23 10 -49 44 -49c80 0 156 91 165 140c-138 -4 -108 -60 -116 -60c-9 0 -35 115 93 130c126 14 254 13 254 109c0 28 -17 38 -5 38z" />
    <glyph glyph-name="bracketleft" unicode="[" horiz-adv-x="448" 
d="M549 702c36 0 76 -45 76 -67c0 -8 -6 -10 -22 -10h-134c-48 -70 -242 -357 -359 -603h64c36 0 76 -45 76 -67c0 -8 -6 -10 -23 -10h-170c-31 0 -58 39 -58 62c0 7 3 14 14 15c60 168 279 532 357 633c-12 11 -21 22 -21 32c0 8 4 15 19 15h181z" />
    <glyph glyph-name="bracketright" unicode="]" horiz-adv-x="613" 
d="M621 702c25 0 28 -22 28 -30c0 -26 -253 -352 -405 -679c-19 -46 -13 -48 -26 -48c-8 0 -186 1 -197 1c-16 0 -22 2 -22 10c0 21 40 66 75 66h88c55 152 260 491 341 603h-115c-16 0 -22 2 -22 10c0 22 40 67 75 67h180z" />
    <glyph glyph-name="less" unicode="&#x3c;" horiz-adv-x="342" 
d="M246 348c11 -2 57 -45 55 -54c-2 -8 -195 -108 -195 -108s86 -155 84 -163c-3 -12 -62 -26 -75 -23c-7 2 -116 194 -113 207c4 20 232 144 244 141z" />
    <glyph glyph-name="greater" unicode="&#x3e;" horiz-adv-x="387" 
d="M109 0c-11 2 -57 45 -55 54s195 108 195 108s-86 155 -84 164c3 12 61 25 75 22c7 -1 116 -193 113 -207c-4 -19 -232 -144 -244 -141z" />
    <glyph glyph-name="backslash" unicode="\" horiz-adv-x="833" 
d="M78 632c27 0 291 -242 534 -566c16 -30 -21 -66 -60 -66c-12 0 -8 7 -19 21c-246 355 -533 534 -533 560c0 19 64 51 78 51z" />
    <glyph glyph-name="asciitilde" unicode="~" horiz-adv-x="833" 
d="M95 248c71 0 102 -66 168 -66c61 0 72 56 95 56c28 0 31 -140 -113 -140c-79 0 -135 68 -177 68c-37 0 -41 -38 -55 -38c-29 0 -12 120 82 120z" />
    <glyph glyph-name="braceleft" unicode="{" horiz-adv-x="390" 
d="M330 709c57 0 82 -73 54 -73c-5 0 -3 24 -11 24c-45 0 -80 -73 -106 -202c-28 -133 -140 -149 -140 -149s32 -52 26 -136c-9 -132 17 -187 45 -187c19 0 31 32 48 32c15 0 -11 -72 -57 -72c-121 0 -136 70 -136 241c0 101 -53 153 -53 153s103 11 148 108
c62 131 45 261 182 261z" />
    <glyph glyph-name="a.1" horiz-adv-x="377" 
d="M403 304c0 -25 -130 -144 -130 -307c0 -47 28 -10 28 -30c0 -12 -14 -21 -28 -21c-25 0 -69 23 -69 129c0 25 6 52 6 52c-40 -58 -96 -130 -130 -130c-47 0 -80 41 -80 96c0 101 116 256 241 256c26 0 42 -21 49 -39c17 24 31 39 40 39c35 0 73 -25 73 -45zM100 92
c25 0 174 193 174 193v0c1 1 2 2 3 4c-4 1 -8 2 -13 2c-88 0 -204 -199 -164 -199z" />
    <glyph glyph-name="b.1" 
d="M291 346c40 0 47 -55 47 -98c0 -49 -120 -254 -186 -254c-68 0 -71 93 -52 93c8 0 12 -13 20 -13c39 0 141 196 137 196c-3 0 -204 -181 -204 -315c0 -13 14 -3 14 -13c0 -14 -67 -30 -69 88c-4 190 158 457 232 523c10 9 79 -31 79 -51c0 -25 -52 -37 -178 -297
c54 69 120 141 160 141z" />
    <glyph glyph-name="d.1" horiz-adv-x="375" 
d="M289 3c0 -45 28 -17 28 -33c0 -11 -13 -21 -28 -21c-31 0 -69 34 -69 112c0 58 18 107 18 107c-50 -76 -119 -169 -161 -169c-46 0 -79 41 -79 97c0 100 114 253 241 253c25 0 40 -20 48 -40c16 24 122 222 172 244c23 10 77 -32 77 -51c0 -17 -247 -301 -247 -499z
M98 94c31 0 121 119 175 196c-4 1 -8 2 -13 2c-87 0 -202 -198 -162 -198z" />
    <glyph glyph-name="h.1" horiz-adv-x="377" 
d="M292 -3c0 -48 28 -12 28 -30c0 -12 -13 -21 -28 -21c-45 0 -69 58 -69 129c0 54 25 123 55 178c-201 -162 -221 -229 -223 -237v-2v0v0c-3 -12 -5 -17 -20 -17c-29 0 -35 36 -36 60c-8 156 199 496 231 496c13 0 78 -32 78 -52c0 -23 -66 -45 -200 -343
c80 83 211 190 241 190c36 0 72 -24 72 -44c0 -27 -129 -148 -129 -307z" />
    <glyph glyph-name="i.1" horiz-adv-x="135" 
d="M243 527c45 6 66 -14 69 -32c5 -37 -15 8 -93 -125c0 0 -43 15 -47 44c-4 30 43 109 71 113zM3 87c0 101 92 257 119 257c32 0 67 -24 67 -42v0c0 -24 -121 -138 -121 -289c0 -44 27 -8 27 -27c0 -10 -11 -20 -27 -20c-36 0 -65 42 -65 121z" />
    <glyph glyph-name="m.1" horiz-adv-x="535" 
d="M458 1c0 -48 28 -11 28 -30c0 -9 -11 -20 -27 -20c-39 0 -69 44 -69 126c0 46 18 103 42 152c-130 -107 -180 -201 -188 -219c-2 -7 -6 -9 -17 -9c-28 0 -36 34 -36 60c0 59 18 119 40 168c-124 -103 -167 -194 -177 -217c-2 -8 -5 -11 -16 -11c-29 0 -37 34 -37 60
c0 139 101 286 124 286c35 0 78 -27 78 -55c0 -14 -37 -30 -94 -140c77 93 174 195 206 195c35 0 78 -27 78 -55c0 -14 -37 -30 -96 -144c80 94 186 199 218 199c34 0 71 -23 71 -43c0 -25 -128 -145 -128 -303z" />
    <glyph glyph-name="n.1" horiz-adv-x="358" 
d="M253 230h1c-142 -116 -195 -216 -202 -225c-2 -5 -6 -8 -15 -8c-30 0 -38 35 -38 60c0 142 102 292 124 292c36 0 80 -28 80 -58c0 -12 -38 -29 -98 -148c85 98 202 206 234 206c35 0 72 -24 72 -45v0c0 -25 -129 -147 -129 -307c0 -48 28 -10 28 -30
c0 -9 -11 -21 -28 -21c-40 0 -70 45 -70 128c0 47 19 104 41 156z" />
    <glyph glyph-name="r.1" horiz-adv-x="258" 
d="M181 1c0 -46 27 -10 27 -29c0 -10 -11 -21 -27 -21c-39 0 -69 45 -69 127c0 88 81 201 81 201s-26 -3 -47 -5c-32 -49 -83 -105 -152 -169c-20 -19 -38 30 -9 51c35 27 77 77 107 120c-25 6 -44 20 -44 51c0 50 39 104 99 104c47 0 59 -36 35 -95c23 5 57 13 66 13
c27 0 60 -25 60 -45c0 -26 -127 -145 -127 -303zM126 376c-24 0 -38 -41 -2 -45c14 27 17 45 2 45z" />
    <glyph glyph-name="t.1" horiz-adv-x="148" 
d="M68 -4c0 -48 28 -10 28 -30c0 -11 -11 -21 -27 -21c-40 0 -70 28 -70 111c0 106 74 261 148 384h-2c-53 0 -100 16 -100 67c0 41 34 59 40 54c12 -11 -34 -50 23 -50c16 0 51 4 90 8c46 69 85 115 97 115c14 0 79 -33 79 -53c0 -7 -12 -22 -33 -47c72 -1 117 -38 117 -64
c0 -27 -27 -54 -34 -47s18 44 -3 44c-3 0 -75 -8 -144 -16c-55 -76 -209 -314 -209 -455z" />
    <glyph glyph-name="u.1" horiz-adv-x="373" 
d="M347 349c35 0 72 -25 72 -45v0c0 -25 -128 -145 -128 -304c0 -47 27 -10 27 -30c0 -10 -11 -20 -27 -20c-39 0 -69 44 -69 127c0 23 5 48 12 75c-59 -74 -141 -152 -188 -152c-10 0 -46 30 -46 78c0 108 101 271 123 271c36 0 79 -28 79 -57c0 -9 -131 -198 -105 -198
c40 0 220 255 250 255z" />
    <glyph glyph-name="b.2" 
d="M505 613c0 -52 -86 -185 -249 -191c-41 -60 -83 -132 -123 -214c55 70 121 142 161 142s46 -55 46 -99c0 -49 -120 -255 -184 -255c-50 0 -71 63 -52 84c10 9 11 -3 18 -3c40 0 139 197 139 197s-184 -189 -205 -259c0 -3 -1 -5 -1 -7v0v0c-2 -9 -6 -12 -17 -12
c-30 0 -38 36 -38 61c0 100 63 245 143 373c-64 7 -135 17 -189 17c-48 0 -3 -29 -29 -29c-37 0 -10 115 75 115c57 0 121 -14 198 -21c80 110 164 190 215 190c44 0 92 -25 92 -89zM458 636c-22 0 -74 -44 -136 -123c103 23 156 123 136 123z" />
    <glyph glyph-name="d.2" horiz-adv-x="385" 
d="M713 609c0 -57 -89 -181 -244 -188c-54 -85 -113 -194 -168 -327c44 34 100 77 108 85c33 32 37 -24 -3 -60c-24 -21 -107 -103 -137 -118c-2 -1 -6 -2 -11 -2c-29 0 -37 36 -37 61c0 32 7 68 19 107c-51 -76 -119 -168 -161 -168c-46 0 -79 41 -79 95
c0 101 115 255 240 255c26 0 41 -21 49 -40c16 32 40 75 69 120c-63 7 -132 17 -189 17c-44 0 -6 -29 -28 -29c-37 0 -8 114 75 114c46 0 118 -15 195 -22c70 99 153 188 212 188s90 -39 90 -88zM100 93c30 0 120 121 175 196c-4 1 -8 2 -12 2c-88 0 -204 -198 -163 -198z
M667 632c-23 0 -74 -41 -135 -122c105 23 156 122 135 122z" />
    <glyph glyph-name="h.2" horiz-adv-x="396" 
d="M257 423c-15 -22 -48 -73 -48 -73c-31 -51 -65 -113 -99 -190c79 84 209 190 238 190c37 0 74 -22 74 -43c0 -15 -123 -176 -105 -193c21 -14 85 54 97 66c34 33 29 -18 -5 -61c-21 -26 -94 -119 -154 -119c-92 0 -49 168 23 257c-199 -164 -219 -231 -222 -240
c-3 -13 -5 -19 -17 -19c-30 0 -70 23 -64 72c8 65 68 181 122 280c0 0 30 53 47 81c-62 8 -131 17 -188 17c-43 0 -7 -28 -27 -28c-39 0 -9 114 74 114c46 0 118 -14 196 -20c69 98 152 188 210 188c61 0 92 -39 92 -88c0 -59 -90 -184 -244 -191zM454 637
c-22 0 -73 -42 -135 -123c106 23 156 123 135 123z" />
    <glyph glyph-name="k.2" horiz-adv-x="344" 
d="M245 419c-15 -23 -77 -128 -123 -230c61 69 161 160 196 160c50 0 66 -92 47 -92c-15 0 -16 15 -38 15c-40 0 -102 -53 -159 -110c9 -33 30 -95 57 -95c15 0 88 61 149 111c38 30 35 -25 -3 -61c-62 -60 -135 -121 -156 -121c-48 0 -78 69 -93 115
c-27 -30 -49 -59 -64 -77c-6 -28 -4 -38 -23 -38c-29 0 -37 36 -37 61c0 135 126 344 145 373c-64 8 -133 17 -190 17c-45 0 -7 -29 -28 -29c-39 0 -9 115 74 115c48 0 120 -14 199 -22c70 100 153 190 213 190s91 -40 91 -89c0 -58 -103 -186 -257 -193zM456 636
c-24 0 -65 -6 -151 -132c107 23 172 132 151 132z" />
    <glyph glyph-name="l.2" horiz-adv-x="176" 
d="M407 702c60 0 91 -38 91 -89c0 -57 -90 -182 -245 -188c-7 -10 -114 -173 -176 -330c45 34 101 78 110 86c34 32 36 -24 -4 -61c-23 -22 -107 -104 -137 -118c0 0 -6 -3 -11 -3c-30 0 -37 36 -37 61c0 127 137 363 141 372c-62 7 -133 18 -189 18c-45 0 -6 -29 -28 -29
c-38 0 -8 114 75 114c47 0 119 -14 197 -21c71 98 154 188 213 188zM315 515c107 22 158 122 137 122c-24 0 -74 -42 -137 -122z" />
    <glyph glyph-name="a.3" horiz-adv-x="355" 
d="M266 -8c59 -7 102 -45 102 -79c0 -29 -43 -62 -76 -62c-51 0 -83 30 -97 69c-90 -27 -171 -102 -267 -102c-65 0 -130 118 -64 118c17 0 -19 -36 33 -36c73 0 182 65 289 87c0 98 24 142 24 142c-41 -58 -96 -130 -128 -130c-48 0 -81 42 -81 96c0 100 115 254 240 254
c26 0 43 -20 50 -38c15 24 30 38 39 38c34 0 72 -24 72 -43c0 -23 -117 -143 -136 -314zM100 94c26 0 174 192 174 192v0c1 1 1 3 2 4c-3 1 -7 2 -12 2c-87 0 -203 -198 -164 -198zM297 -103c30 0 35 31 -32 34c4 -22 17 -34 32 -34z" />
    <glyph glyph-name="g.3" horiz-adv-x="321" 
d="M388 -103c41 0 3 -101 -62 -101c-78 0 -151 20 -218 32c-49 -77 -90 -130 -109 -130c-132 0 -99 207 57 207v0c32 58 68 129 102 198c-38 -53 -82 -105 -111 -105c-46 0 -79 42 -79 96c0 101 115 255 242 255c28 0 42 -23 50 -43c13 17 21 29 22 30c7 8 12 13 15 13
c35 0 72 -24 72 -44c0 -6 -113 -231 -217 -406c76 -10 145 -24 216 -24c24 0 12 22 20 22zM68 93c17 0 121 125 179 196c-4 1 -9 2 -15 2c-88 0 -204 -198 -164 -198zM-32 -214c10 0 26 18 46 46c-59 -8 -65 -46 -46 -46z" />
    <glyph glyph-name="j.3" horiz-adv-x="187" 
d="M244 -99c41 0 2 -101 -62 -101c-78 0 -151 20 -217 32c-47 -76 -88 -129 -108 -129c-130 0 -98 203 55 206c104 164 218 405 241 440c13 20 73 -24 73 -44c0 -7 -113 -229 -217 -403c74 -8 144 -23 215 -23c23 0 12 22 20 22zM-173 -210c10 0 25 17 42 45
c-55 -8 -61 -45 -42 -45zM300 563c46 0 74 -32 74 -48c0 -38 -30 -23 -126 -142c0 0 -39 21 -39 49c0 30 62 141 91 141z" />
    <glyph glyph-name="n.3" horiz-adv-x="385" 
d="M275 -8c60 -7 102 -46 102 -79c0 -30 -42 -63 -77 -63c-51 0 -81 29 -96 71c-89 -28 -171 -103 -267 -103c-65 0 -130 118 -64 118c16 0 -19 -37 33 -37c73 0 182 66 287 88c1 144 61 243 61 243v1c-141 -116 -195 -214 -201 -225c-3 -5 -6 -7 -15 -7
c-30 0 -38 35 -38 60c0 141 102 290 124 290c36 0 80 -28 80 -56c0 -14 -38 -31 -98 -149c83 97 201 205 232 205c35 0 73 -25 73 -45c0 -22 -118 -140 -136 -312zM305 -104c31 0 36 33 -31 35c4 -22 16 -35 31 -35z" />
    <glyph glyph-name="r.3" horiz-adv-x="262" 
d="M310 304v0v0zM238 349c35 0 72 -24 72 -45c0 -23 -117 -139 -135 -311c60 -6 103 -45 103 -79c0 -29 -44 -62 -78 -62c-50 0 -80 30 -96 70c-88 -28 -170 -102 -264 -102c-66 0 -130 117 -65 117c17 0 -18 -36 34 -36c71 0 180 67 285 88c0 168 88 291 88 291
s-14 -4 -34 -6c-33 -48 -85 -105 -153 -169c-21 -19 -38 28 -10 51c34 27 77 75 107 121c-23 6 -43 19 -43 51c0 49 39 103 100 103c47 0 59 -35 34 -93c20 5 38 11 55 11zM128 377c-26 0 -39 -42 -2 -47c13 28 15 47 2 47zM205 -102c31 0 35 32 -31 33c4 -21 16 -33 31 -33
z" />
    <glyph glyph-name="u.3" horiz-adv-x="379" 
d="M285 -9c60 -7 103 -47 103 -80c0 -29 -44 -62 -77 -62c-49 0 -78 31 -93 70c-92 -25 -175 -102 -273 -102c-63 0 -130 117 -63 117c17 0 -19 -35 33 -35c73 0 182 65 289 86v13c0 104 31 152 31 152c-59 -73 -142 -151 -190 -151c-10 0 -46 30 -46 78
c0 108 102 272 123 272c37 0 81 -26 81 -57c0 -9 -131 -199 -106 -199c39 0 222 256 251 256c36 0 74 -25 74 -43c0 -24 -119 -143 -137 -315zM315 -103c31 0 35 30 -30 32c4 -22 15 -32 30 -32z" />
    <glyph glyph-name="y.3" horiz-adv-x="371" 
d="M435 -101c39 0 2 -102 -64 -102c-79 0 -149 20 -217 30c-47 -73 -89 -128 -108 -128c-130 0 -99 204 54 207c35 66 86 154 123 231c-57 -67 -140 -137 -182 -137c-11 0 -46 27 -46 75c0 109 100 273 123 273c36 0 79 -29 79 -57c0 -9 -130 -201 -105 -198
c68 8 208 237 246 254c25 11 76 -20 76 -44c0 -7 -113 -231 -216 -403c75 -9 144 -23 215 -23c25 0 14 22 22 22zM15 -213c9 0 24 18 43 45c-55 -9 -61 -45 -43 -45z" />
    <glyph glyph-name="m.3" horiz-adv-x="555" 
d="M450 -5c59 -8 102 -45 102 -79c0 -29 -44 -61 -76 -61c-52 0 -81 29 -96 68c-89 -26 -169 -100 -264 -100c-64 0 -128 115 -62 115c15 0 -19 -34 32 -34c72 0 179 66 284 85c0 144 59 241 59 241c-130 -108 -177 -199 -186 -219c-2 -7 -6 -9 -16 -9c-28 0 -37 36 -37 59
c0 58 19 120 41 170c-124 -105 -166 -193 -176 -218c-3 -8 -5 -11 -17 -11c-29 0 -37 36 -37 59c0 140 99 287 122 287c36 0 79 -27 79 -56c0 -14 -36 -30 -94 -140c77 95 175 196 204 196c37 0 80 -27 80 -56c0 -14 -37 -30 -97 -144c81 96 188 200 218 200
c35 0 72 -25 72 -44c0 -23 -117 -139 -135 -309zM480 -99c31 0 35 30 -31 33c4 -22 16 -33 31 -33z" />
    <glyph glyph-name="i.3" horiz-adv-x="160" 
d="M243 529c45 6 66 -14 69 -32c5 -37 -15 8 -93 -125c0 0 -43 15 -47 44c-4 30 43 109 71 113zM124 349c34 0 68 -23 68 -40c0 -21 -114 -134 -122 -295c52 -8 92 -42 92 -75c0 -26 -30 -58 -63 -58c-48 0 -73 27 -85 69c-90 -20 -172 -99 -265 -99c-61 0 -124 111 -61 111
c14 0 -17 -34 30 -34c72 0 182 68 285 84c-1 16 -2 32 -2 51c0 119 97 286 123 286zM93 -76c26 0 33 26 -21 31c5 -17 11 -31 21 -31z" />
    <glyph glyph-name="a.4" horiz-adv-x="608" 
d="M513 263c0 23 -26 -8 -26 14c0 35 99 33 99 -83c0 -81 -132 -283 -278 -283c-55 0 -107 65 -107 166c0 16 2 34 6 51c-40 -57 -95 -127 -129 -127c-46 0 -78 39 -78 94c0 100 113 252 238 252c26 0 40 -19 49 -38c15 24 31 38 38 38c34 0 73 -24 73 -43
c0 -21 -113 -137 -113 -272c0 -31 15 -58 29 -58c66 0 199 200 199 289zM99 94c24 0 172 191 172 191v0c0 1 1 2 2 3c-3 2 -8 2 -13 2c-87 0 -201 -196 -161 -196z" />
    <glyph glyph-name="c.4" horiz-adv-x="501" 
d="M93 0c-56 0 -92 47 -92 108c0 122 147 240 218 240c39 0 73 -21 73 -63c0 -58 -42 -87 -81 -87c-34 0 -34 26 -20 26c50 0 78 51 40 51c-48 0 -142 -101 -142 -175c0 -12 6 -26 26 -26c95 0 295 190 295 280c0 23 -26 -9 -26 13c0 35 99 34 99 -83
c0 -81 -237 -284 -390 -284z" />
    <glyph glyph-name="d.4" horiz-adv-x="627" 
d="M512 276c0 37 98 36 98 -81c0 -83 -133 -285 -280 -285c-67 0 -108 72 -108 150c0 59 18 107 18 107c-50 -77 -119 -166 -160 -166c-45 0 -79 39 -79 93c0 102 115 255 240 255c26 0 42 -21 50 -39c15 22 134 243 168 243c26 0 77 -33 77 -52c0 -17 -231 -260 -231 -459
c0 -51 11 -68 31 -68c67 0 202 201 202 291c0 23 -26 -9 -26 11zM100 93c31 0 122 121 176 196c-3 1 -7 3 -12 3c-88 0 -203 -199 -164 -199z" />
    <glyph glyph-name="e.4" horiz-adv-x="498" 
d="M385 362c0 37 98 35 98 -82c0 -79 -230 -281 -390 -281c-55 0 -92 44 -92 105c0 123 147 241 216 241c42 0 74 -22 74 -73c0 -38 -61 -136 -137 -136c-22 0 -37 16 -45 28c-11 -21 -20 -45 -20 -67c0 -12 6 -24 26 -24c95 0 294 189 294 278c0 22 -24 -11 -24 11z
M232 272c-31 0 -76 -38 -109 -83c58 8 134 83 109 83z" />
    <glyph glyph-name="h.4" horiz-adv-x="627" 
d="M508 279c0 35 98 34 98 -82c0 -81 -133 -283 -279 -283c-54 0 -102 69 -102 151c0 104 53 192 53 192c-197 -161 -217 -227 -219 -235v-1v0c-2 -13 -5 -18 -18 -18c-29 0 -35 35 -37 60c-10 166 197 490 228 490c15 0 78 -32 78 -52c0 -23 -66 -45 -198 -338
c77 82 208 187 237 187c35 0 73 -25 73 -44c0 -22 -107 -125 -107 -287c0 -19 5 -42 18 -42c67 0 200 199 200 289c0 23 -25 -9 -25 13z" />
    <glyph glyph-name="i.4" horiz-adv-x="170" 
d="M243 527c45 6 66 -14 69 -32c5 -37 -15 8 -93 -125c0 0 -43 15 -47 44c-4 30 43 109 71 113zM281 280c0 34 95 33 95 -80c0 -78 -127 -273 -268 -273c-53 0 -104 55 -104 160c0 103 94 262 120 262c34 0 69 -23 69 -43s-107 -132 -107 -262c0 -30 14 -56 27 -56
c64 0 193 194 193 280c0 22 -25 -9 -25 12z" />
    <glyph glyph-name="l.4" horiz-adv-x="390" 
d="M301 504c-123 -122 -338 -507 -202 -516c65 -4 197 197 197 284c0 21 -27 -9 -27 11c0 36 99 35 99 -81c0 -78 -131 -275 -275 -275c-52 0 -100 56 -100 147v-1c0 193 201 480 233 480c13 0 87 -36 75 -49z" />
    <glyph glyph-name="m.4" horiz-adv-x="786" 
d="M516 349c34 0 71 -24 71 -44c0 -21 -112 -137 -112 -272c0 -32 15 -58 29 -58c66 0 200 200 200 290c0 23 -26 -9 -26 13c0 36 99 34 99 -83c0 -81 -132 -284 -279 -284c-55 0 -107 58 -107 166c0 83 41 154 41 154c-131 -109 -180 -202 -188 -221c-3 -6 -7 -9 -17 -9
c-29 0 -36 35 -36 60c0 59 17 120 40 171c-125 -105 -168 -196 -177 -219c-3 -8 -6 -12 -17 -12c-30 0 -37 35 -37 60c0 141 101 288 123 288c36 0 79 -27 79 -56c0 -14 -36 -29 -94 -141c77 95 175 197 206 197c36 0 79 -27 79 -56c0 -14 -38 -30 -96 -144
c80 96 188 200 219 200z" />
    <glyph glyph-name="n.4" horiz-adv-x="612" 
d="M253 230c-141 -116 -196 -212 -201 -223c-2 -5 -6 -8 -14 -8c-30 0 -38 35 -38 60c0 141 102 289 123 289c36 0 79 -28 79 -56c0 -15 -38 -31 -97 -148c83 96 201 204 231 204c34 0 72 -25 72 -45c0 -21 -113 -138 -113 -273c0 -31 16 -58 30 -58c65 0 200 202 200 290
c0 23 -26 -8 -26 14c0 36 99 34 99 -82c0 -82 -133 -285 -280 -285c-54 0 -108 58 -108 167c0 83 43 154 43 154z" />
    <glyph glyph-name="p.4" horiz-adv-x="544" 
d="M535 222c0 -72 -144 -171 -319 -194c-20 -19 -42 -31 -66 -31c-47 0 -70 63 -50 83c9 9 10 -1 17 -2c78 -7 138 195 135 193c0 0 -127 -72 -219 -274c-30 -71 -65 -156 -101 -256c-11 -30 -17 -42 -23 -42c-19 0 -33 24 -33 74c0 156 221 573 236 573c35 0 73 -24 73 -44
c0 -7 -13 -28 -37 -70c53 64 105 115 136 115c29 0 47 -28 47 -73c0 -25 -23 -103 -60 -170c98 30 198 87 198 175c0 19 -14 11 -14 21c0 21 80 -2 80 -78z" />
    <glyph glyph-name="r.4" horiz-adv-x="514" 
d="M401 276c0 36 99 36 99 -82c0 -82 -134 -285 -281 -285c-54 0 -107 45 -106 156c1 109 68 214 68 214s-15 -3 -34 -4c-34 -50 -85 -108 -155 -171c-19 -20 -37 30 -9 51c35 27 78 77 109 121c-25 7 -45 20 -45 52c0 49 39 104 101 104c45 0 59 -35 34 -94
c20 5 39 11 55 11c35 0 72 -25 72 -45c0 -22 -112 -138 -112 -274c0 -31 15 -57 29 -57c66 0 200 201 200 290c0 23 -25 -8 -25 13zM126 377c-25 0 -39 -41 -2 -46c13 27 17 46 2 46z" />
    <glyph glyph-name="s.4" horiz-adv-x="373" 
d="M356 189c0 -58 -101 -117 -197 -154c-3 -83 -20 -158 -100 -158c-55 0 -96 122 -120 122c-22 0 -16 32 9 37c-1 15 6 30 10 30c9 0 10 -15 43 -15c18 0 41 6 70 16c1 43 0 91 -2 131c-27 -31 -59 -64 -95 -97c-20 -19 -37 29 -9 51c35 28 78 80 113 130
c19 44 57 66 77 66c36 0 96 -15 21 -92c-22 -21 -20 -81 -17 -148c73 39 141 93 141 129c0 16 -10 13 -10 17c0 22 66 -6 66 -65zM53 -35c6 6 10 21 13 41c-21 -5 -41 -7 -56 -7c-3 0 -6 0 -9 1c20 -24 39 -48 52 -35z" />
    <glyph glyph-name="v.4" horiz-adv-x="273" 
d="M408 348c-84 0 -238 -351 -362 -351c-11 0 -47 31 -47 78c0 110 102 273 124 273c37 0 79 -27 79 -56c0 -9 -131 -201 -105 -201c36 0 210 308 271 308c55 0 65 -57 55 -57c-5 0 0 6 -15 6z" />
    <glyph glyph-name="w.4" horiz-adv-x="437" 
d="M520 393c54 0 63 -55 54 -55c-6 0 -1 5 -15 6c-78 5 -229 -358 -354 -343c-9 1 -42 26 -45 70c-44 -39 -83 -77 -122 -70c-23 4 -45 30 -45 76c0 107 99 267 122 267c35 0 90 -30 72 -53c-55 -71 -123 -197 -98 -197c39 0 86 93 121 153v0c28 55 60 97 71 97
c35 0 65 -23 65 -52c0 -8 -128 -191 -91 -198c33 -6 205 299 265 299z" />
    <glyph glyph-name="z.4" 
d="M198 107c30 0 61 -36 61 -55c0 -88 -215 -271 -369 -271c-78 0 -94 92 -71 92c8 0 0 -13 18 -13c151 0 418 178 363 178c-32 0 -151 -37 -181 -37c-9 0 -18 25 -18 56c0 46 276 218 276 218s-101 -7 -200 -61c-25 -16 -39 74 0 98c15 11 157 32 182 32
c22 0 69 -16 69 -76c0 0 18 -11 18 -24c0 0 -97 -52 -219 -151c21 8 46 14 71 14z" />
    <glyph glyph-name="a.5" horiz-adv-x="755" 
d="M636 219c94 0 124 -111 72 -111c-26 0 13 43 -12 43c-102 0 -394 -152 -448 -152c-20 0 -44 33 -44 77c0 17 2 35 6 54c-40 -60 -96 -131 -131 -131c-46 0 -80 41 -80 96c0 101 116 256 242 256c27 0 42 -20 49 -39c17 24 32 39 41 39c35 0 73 -24 73 -45
c0 -14 -93 -122 -122 -215c31 0 293 128 354 128zM100 94c25 0 174 193 174 193v0c1 2 2 3 3 4c-3 1 -7 3 -12 3c-89 0 -206 -200 -165 -200z" />
    <glyph glyph-name="c.5" horiz-adv-x="596" 
d="M480 217c94 0 123 -110 72 -110c-26 0 12 43 -12 43c-103 0 -355 -152 -447 -152v0c-56 0 -93 47 -93 108c0 124 149 244 221 244c39 0 73 -22 73 -65c0 -57 -42 -87 -81 -87c-35 0 -35 26 -21 26c51 0 79 52 41 52c-49 0 -144 -102 -144 -178c0 -11 6 -26 26 -26
c79 0 305 145 365 145z" />
    <glyph glyph-name="e.5" horiz-adv-x="602" 
d="M477 217c93 0 123 -110 72 -110c-25 0 12 43 -13 43c-101 0 -352 -151 -443 -151v0c-55 0 -92 47 -92 108c0 122 148 241 219 241c39 0 73 -22 73 -72c0 -40 -63 -136 -138 -136c-23 0 -38 13 -46 27c-12 -23 -19 -47 -19 -69c0 -11 6 -25 25 -25c78 0 302 144 362 144z
M232 275c-30 0 -76 -39 -108 -86c57 9 133 86 108 86z" />
    <glyph glyph-name="g.5" horiz-adv-x="321" 
d="M155 -96c112 -28 154 -108 154 -164c0 -44 -22 -85 -51 -85c-13 0 -21 10 -21 18c0 10 11 -5 11 10c0 60 -38 124 -140 143c-47 -76 -86 -125 -127 -125c-132 0 -73 209 80 214c31 55 66 121 96 185c-36 -51 -82 -103 -110 -103c-47 0 -80 40 -80 95
c0 103 116 257 241 257c29 0 43 -23 51 -43c14 15 23 28 25 29c6 9 10 14 13 14c35 0 73 -25 73 -45c0 -6 -112 -226 -215 -400zM68 91c17 0 121 126 177 198c-3 1 -7 2 -14 2c-87 0 -204 -200 -163 -200zM-33 -215c11 0 26 17 45 46c-54 -10 -63 -46 -45 -46z" />
    <glyph glyph-name="h.5" horiz-adv-x="739" 
d="M241 0c-10 0 -33 15 -33 77c0 54 26 124 56 179c-199 -163 -219 -228 -221 -236v-1v0v0c-3 -14 -6 -19 -18 -19c-29 0 -37 36 -37 60c3 188 197 493 229 493c13 0 78 -34 78 -53c0 -24 -66 -44 -199 -339c78 81 209 189 239 189c35 0 72 -25 72 -45
c0 -14 -91 -121 -120 -213c30 0 278 126 338 126c93 0 122 -110 71 -110c-25 0 13 43 -11 43c-102 0 -390 -151 -444 -151z" />
    <glyph glyph-name="i.5" horiz-adv-x="170" 
d="M243 527c45 6 66 -14 69 -32c5 -37 -15 8 -93 -125c0 0 -43 15 -47 44c-4 30 43 109 71 113zM419 217c95 0 124 -110 73 -110c-26 0 12 43 -13 43c-102 0 -372 -150 -434 -150c-9 0 -45 13 -45 75c0 108 99 275 127 275c35 0 63 -18 63 -38c0 -14 -83 -129 -112 -222
c31 0 281 127 341 127z" />
    <glyph glyph-name="k.5" horiz-adv-x="712" 
d="M603 216c94 0 124 -111 74 -111c-27 0 12 43 -14 43c-101 0 -393 -152 -446 -152c-49 0 -79 69 -94 116c-27 -31 -49 -59 -64 -77c-6 -29 -3 -39 -21 -39c-30 0 -38 36 -38 61c0 200 204 496 235 496c14 0 78 -32 78 -53c0 -22 -60 -36 -190 -311c61 69 160 160 197 160
c50 0 63 -92 47 -92c-15 0 -16 14 -39 14c-41 0 -102 -52 -158 -110c9 -31 29 -95 56 -95c31 0 317 150 377 150z" />
    <glyph glyph-name="l.5" horiz-adv-x="527" 
d="M41 -1c-33 0 -45 35 -48 61c-17 148 201 493 233 493c15 0 73 -30 73 -50c0 -25 -81 -61 -226 -409c31 0 293 124 353 124c94 0 123 -110 72 -110c-25 0 13 42 -12 42c-102 0 -391 -151 -445 -151z" />
    <glyph glyph-name="m.5" horiz-adv-x="920" 
d="M808 217c93 0 122 -110 72 -110c-26 0 12 43 -12 43c-102 0 -383 -151 -444 -151c0 0 -32 0 -32 77c0 47 19 104 41 154c-131 -109 -179 -202 -188 -221c-2 -7 -6 -10 -16 -10c-29 0 -38 35 -38 61c0 59 19 120 41 170c-125 -105 -168 -195 -177 -219
c-3 -9 -6 -12 -17 -12c-29 0 -37 35 -37 61c0 141 100 289 123 289c36 0 79 -28 79 -56c0 -14 -36 -30 -95 -142c78 95 177 198 207 198c36 0 79 -28 79 -56c0 -14 -36 -31 -96 -145c81 95 189 201 219 201c36 0 73 -24 73 -44c0 -15 -92 -122 -121 -214
c31 0 279 126 339 126z" />
    <glyph glyph-name="n.5" horiz-adv-x="740" 
d="M402 304v0v0zM622 216c95 0 125 -111 73 -111c-26 0 13 43 -12 43c-103 0 -386 -152 -448 -152c0 0 -31 0 -31 77c0 47 18 105 40 156h1c-142 -116 -197 -215 -202 -226c-4 -5 -7 -7 -15 -7c-30 0 -38 35 -38 61c0 142 102 292 124 292c37 0 80 -28 80 -57
c0 -15 -38 -31 -99 -149c85 98 203 206 234 206c36 0 73 -25 73 -45c0 -15 -92 -122 -120 -216c30 0 280 128 340 128z" />
    <glyph glyph-name="o.5" horiz-adv-x="822" 
d="M687 347c117 0 151 -109 102 -109c-15 0 5 25 -16 25c-164 0 -396 -169 -542 -169c-39 -56 -93 -96 -142 -96c-35 0 -106 25 -106 104c0 57 33 119 57 119c7 0 13 0 19 -1c14 73 74 127 149 127c49 0 80 -44 80 -90c0 -25 -4 -60 -25 -110c90 0 316 200 424 200zM196 303
c-38 0 -82 -49 -82 -108c0 -35 24 -49 49 -54c36 72 59 162 33 162zM72 63c17 -17 40 -2 60 26c-23 6 -42 17 -55 33c-10 -26 -15 -49 -5 -59z" />
    <glyph glyph-name="r.5" horiz-adv-x="642" 
d="M528 215c94 0 123 -109 72 -109c-24 0 13 43 -12 43c-101 0 -382 -152 -443 -152c0 0 -32 0 -32 77c0 90 70 204 70 204s-16 -3 -36 -5c-33 -50 -85 -107 -153 -171c-20 -19 -38 29 -10 51c36 27 78 77 108 123c-25 5 -44 19 -44 50c0 51 40 105 100 105
c47 0 59 -36 36 -94c19 5 38 10 54 10c35 0 72 -24 72 -45c0 -14 -91 -121 -120 -213c31 0 279 126 338 126zM126 376c-23 0 -38 -41 -1 -47c13 28 17 47 1 47zM310 302v0v0z" />
    <glyph glyph-name="u.5" horiz-adv-x="737" 
d="M624 216c93 0 122 -109 71 -109c-25 0 13 43 -12 43c-101 0 -382 -152 -444 -152c-45 -3 -55 76 -19 153c-60 -75 -142 -152 -189 -152c-10 0 -46 30 -46 78c0 107 101 271 123 271c37 0 79 -27 79 -57c0 -8 -131 -198 -105 -198c40 0 221 255 251 255
c35 0 71 -25 71 -44c0 -14 -90 -122 -119 -214c31 0 279 126 339 126z" />
    <glyph glyph-name="x.5" horiz-adv-x="706" 
d="M592 216c93 0 122 -108 71 -108c-25 0 12 42 -12 42c-99 0 -378 -149 -438 -149c-24 0 -60 35 -91 91c-53 -53 -98 -101 -107 -123c-12 -25 -48 39 -33 62c36 50 72 95 108 134c-12 38 -20 79 -20 122c0 42 84 73 81 60c-4 -23 -1 -66 10 -111c74 70 138 111 164 111
c65 0 89 -49 89 -59c0 -18 -8 -27 -18 -27c-8 0 3 18 -7 18c-38 0 -123 -60 -204 -129c17 -43 37 -75 55 -75c31 0 294 141 352 141z" />
    <glyph glyph-name="j.5" horiz-adv-x="187" 
d="M268 527c45 6 66 -14 69 -32c5 -37 -15 8 -93 -125c0 0 -43 15 -47 44c-4 30 43 109 71 113zM151 348c35 0 72 -24 72 -43c0 -8 -111 -226 -212 -398c110 -28 151 -107 151 -164c0 -41 -22 -82 -50 -82c-12 0 -21 7 -21 16s12 -5 12 11c0 60 -41 123 -139 142
c-49 -75 -90 -128 -109 -128c-130 0 -91 209 60 215c137 227 219 431 236 431zM-176 -212c9 0 25 17 43 46c-52 -11 -61 -46 -43 -46z" />
    <glyph glyph-name="y.5" horiz-adv-x="371" 
d="M200 -93c111 -28 153 -107 153 -163c0 -41 -22 -83 -51 -83c-13 0 -22 9 -22 18s13 -6 13 11c0 59 -40 123 -139 142c-47 -76 -89 -129 -109 -129c-129 0 -90 208 62 215c34 65 74 146 111 221c-58 -70 -134 -139 -178 -139c-10 0 -45 30 -45 78c0 107 100 269 123 269
c35 0 78 -27 78 -56c0 -9 -130 -206 -105 -197c97 34 216 253 250 253s71 -24 71 -44c0 -6 -110 -224 -212 -396zM14 -210c10 0 25 17 44 44c-52 -9 -61 -44 -44 -44z" />
    <glyph glyph-name="t.5" horiz-adv-x="526" 
d="M414 219c94 0 124 -110 72 -110c-26 0 12 42 -12 42c-102 0 -383 -151 -444 -151v0c-29 0 -38 36 -38 61c0 104 74 258 146 379h-1c-53 0 -100 18 -100 68c0 40 35 58 41 52c11 -11 -35 -49 21 -49c16 0 52 4 90 9c46 68 85 113 96 113c15 0 78 -33 78 -51
c0 -8 -12 -23 -32 -47c72 -2 115 -38 115 -65c0 -26 -26 -53 -33 -46c-7 8 18 44 -3 44c-4 0 -73 -8 -143 -16c-54 -75 -124 -189 -195 -356c30 0 283 123 342 123z" />
    <glyph glyph-name="t.4" horiz-adv-x="407" 
d="M336 534c71 -1 115 -37 115 -63c0 -27 -26 -53 -33 -46s18 43 -2 43c-4 0 -74 -8 -143 -16c-53 -75 -188 -279 -188 -418c0 -40 14 -57 29 -57c66 0 200 200 200 290c0 23 -26 -9 -26 14c0 35 99 34 99 -83c0 -82 -132 -284 -280 -284c-54 0 -107 54 -107 150
c0 104 73 256 147 377h-2c-54 0 -100 17 -100 67c0 39 35 58 41 52c11 -11 -34 -49 20 -49c16 0 51 4 89 8c47 68 86 113 97 113c13 0 77 -31 77 -52c0 -7 -12 -21 -33 -46z" />
    <glyph glyph-name="b.6" 
d="M291 348c136 0 -42 -355 -137 -355c-48 0 -71 64 -50 85c9 9 9 -5 18 -5c50 0 156 198 138 198c0 0 -171 -140 -206 -260c0 -3 0 -18 -17 -18c-31 0 -38 35 -38 60c0 117 91 296 172 424c-76 -31 -157 -59 -213 -59c-103 0 -115 96 -78 96c16 0 -12 -31 16 -31
c145 0 347 120 390 146c4 2 8 3 10 3c14 0 75 -27 65 -43c-23 -36 -106 -120 -230 -385c56 70 122 144 160 144z" />
    <glyph glyph-name="d.6" horiz-adv-x="374" 
d="M627 529c75 0 112 -92 75 -92c-7 0 6 13 -16 13c-40 0 -130 -21 -232 -37c-48 -96 -117 -206 -162 -318c44 34 101 79 109 86c34 32 37 -23 -4 -61c-22 -21 -107 -104 -136 -119h-2c-1 0 -1 -1 -2 -1v0c-1 0 -3 -1 -4 -1c0 0 -1 0 -1 1c-2 -1 -2 -1 -3 -1
c-29 0 -38 37 -38 61c0 32 8 69 20 109c-51 -78 -120 -170 -163 -170c-47 0 -79 42 -79 96c0 102 116 256 242 256c26 0 41 -20 49 -40c21 32 40 61 56 89c-20 -2 -39 -2 -58 -2c-62 0 -128 33 -128 104c0 102 137 199 238 199c40 0 120 -27 120 -123c0 -22 -5 -47 -15 -72
c62 13 112 23 134 23zM89 94c32 0 122 123 177 198c-4 1 -8 2 -13 2c-87 0 -204 -200 -164 -200zM253 469c35 0 80 6 127 13c50 107 42 154 0 154c-64 0 -167 -85 -167 -133c0 -23 13 -34 40 -34z" />
    <glyph glyph-name="h.6" horiz-adv-x="382" 
d="M396 179c34 32 37 -24 -4 -61c-24 -24 -128 -120 -154 -120c-11 0 -31 14 -31 76c0 54 23 123 52 178c-169 -148 -202 -275 -204 -285c-1 -3 -1 -5 -1 -8c0 -12 13 -3 13 -11c0 -14 -69 -31 -69 87c0 235 264 598 295 598c14 0 79 -32 79 -52c0 -23 -115 -113 -241 -373
c-7 -11 -14 -25 -22 -43c83 112 185 184 223 184c36 0 73 -24 73 -44c0 -15 -92 -121 -122 -216c18 14 102 77 113 90z" />
    <glyph glyph-name="l.6" horiz-adv-x="176" 
d="M195 185c35 33 37 -25 -3 -64c-23 -20 -111 -106 -140 -120c-1 0 -7 -3 -12 -3c-30 0 -38 37 -38 63c0 120 92 302 175 431c-77 -32 -161 -60 -216 -60c-107 0 -118 99 -81 99c15 0 -13 -32 15 -32c150 0 354 123 400 147c25 15 81 -29 81 -47c0 -26 -144 -144 -292 -502
c45 33 105 78 111 88z" />
    <glyph glyph-name="scaron" unicode="&#x161;" horiz-adv-x="208" 
d="M79 471c-7 21 16 31 21 32c12 3 63 -75 63 -75s68 56 72 58c20 10 36 -17 18 -34c-3 -3 -76 -78 -89 -77c-20 1 -83 89 -85 96zM234 178c44 37 24 -32 -4 -59c-19 -19 -44 -41 -72 -62c-1 -91 -13 -178 -98 -178c-57 0 -97 121 -121 121c-21 0 -16 31 10 36
c-2 15 5 30 9 30c9 0 10 -15 43 -15c21 0 44 7 69 18c1 42 0 90 -1 129c-27 -32 -59 -64 -95 -97c-20 -20 -38 29 -9 51c34 27 79 80 113 130c18 43 57 65 76 65c36 0 96 -15 21 -91c-20 -20 -20 -75 -18 -137c32 22 59 45 77 59zM53 -33c6 6 10 21 13 42
c-18 -6 -37 -9 -56 -9h-9c19 -23 38 -47 52 -33z" />
    <glyph glyph-name="swsh.1" horiz-adv-x="2464" 
d="M106 -415c155 156 1985 308 2211 82c38 -38 -22 -149 -60 -110c-217 217 -1988 83 -2121 -50c-19 -19 -55 53 -30 78z" />
    <glyph glyph-name="swsh.2" horiz-adv-x="2992" 
d="M190 -462c-43 -55 -127 66 8 144c332 189 2320 263 2680 88c27 -14 4 -72 -53 -52c-563 199 -2509 -23 -2635 -180z" />
    <glyph glyph-name="swsh.3" horiz-adv-x="2210" 
d="M74 -206c165 -241 1943 153 2089 -58c19 -28 13 -134 -21 -85c-139 203 -1917 -196 -2071 27c-51 75 -21 151 3 116z" />
    <glyph glyph-name="Euro" unicode="&#x20ac;" horiz-adv-x="501" 
d="M407 658c51 0 110 -37 96 -148c-3 -32 -34 -58 -62 -42c-8 6 -12 16 -8 26c15 51 6 106 -32 106c-32 0 -99 -62 -156 -153h92c26 0 72 -40 72 -66c0 -8 -5 -16 -17 -16h-189c-10 -21 -18 -43 -25 -65h124c31 0 67 -47 67 -71c0 -8 -6 -11 -20 -11h-188
c-1 -14 -2 -29 -2 -45c0 -57 19 -87 41 -88c21 0 63 7 96 55c11 15 35 12 41 -5c5 -16 4 -35 -8 -52c-10 -14 -60 -55 -128 -57c-72 -1 -130 64 -127 178c0 6 1 11 1 17c-26 7 -62 41 -62 64c0 8 5 15 17 15h59c6 22 12 44 21 68c-28 8 -55 47 -55 68c0 9 5 11 18 11h72
c60 114 154 211 262 211z" />
    <glyph glyph-name="quotesinglbase" unicode="&#x201a;" horiz-adv-x="131" 
d="M85 78c41 0 63 -20 63 -36c0 -44 -72 -109 -93 -109c-29 0 -39 20 -39 20c54 53 63 94 55 110c-4 8 -4 15 14 15z" />
    <glyph glyph-name="quotedblbase" unicode="&#x201e;" horiz-adv-x="208" 
d="M69 71c41 0 63 -20 63 -36c0 -44 -72 -109 -93 -109c-29 0 -39 20 -39 20c54 53 63 94 55 110c-4 8 -4 15 14 15zM183 71c41 0 63 -20 63 -36c0 -44 -72 -109 -93 -109c-29 0 -39 20 -39 20c54 53 63 94 55 110c-4 8 -4 15 14 15z" />
    <glyph glyph-name="ellipsis" unicode="&#x2026;" horiz-adv-x="390" 
d="M39 69c37 0 68 -22 68 -33c0 -13 -28 -26 -51 -93c0 0 -56 -4 -56 37c0 28 21 89 39 89zM169 69c37 0 68 -22 68 -33c0 -13 -28 -26 -51 -93c0 0 -56 -4 -56 37c0 28 21 89 39 89zM299 69c37 0 68 -22 68 -33c0 -13 -28 -26 -51 -93c0 0 -56 -4 -56 37c0 28 21 89 39 89z
" />
    <glyph glyph-name="circumflex" unicode="&#x2c6;" horiz-adv-x="205" 
d="M227 596c8 -23 -18 -34 -24 -35c-13 -4 -70 83 -70 83s-76 -62 -81 -64c-22 -12 -40 19 -20 38c4 3 89 86 103 85c23 -2 90 -99 92 -107z" />
    <glyph glyph-name="perthousand" unicode="&#x2030;" horiz-adv-x="740" 
d="M538 629c-27 0 -291 -241 -534 -566c-16 -30 21 -66 60 -66c12 0 8 6 19 21c246 355 533 534 533 560c0 19 -63 51 -78 51zM226 603c0 0 69 -18 69 -68c0 -69 -84 -131 -136 -131c-28 0 -85 20 -85 96s81 134 114 134c28 0 38 -31 38 -31zM143 452c67 0 115 129 77 129
c-51 0 -118 -129 -77 -129zM401 201c0 0 70 -18 70 -68c0 -69 -84 -131 -137 -131c-27 0 -84 20 -84 96s81 134 114 134c28 0 37 -31 37 -31zM319 50c66 0 115 129 77 129c-51 0 -118 -129 -77 -129zM645 201c0 0 70 -18 70 -68c0 -69 -84 -131 -137 -131
c-27 0 -84 20 -84 96s81 134 114 134c28 0 37 -31 37 -31zM563 50c66 0 115 129 77 129c-51 0 -118 -129 -77 -129z" />
    <glyph glyph-name="quoteleft" unicode="&#x2018;" horiz-adv-x="128" 
d="M74 600c-41 0 -63 20 -63 36c0 44 72 109 93 109c29 0 39 -20 39 -20c-54 -53 -63 -94 -55 -110c4 -8 4 -15 -14 -15z" />
    <glyph glyph-name="quoteright" unicode="&#x2019;" horiz-adv-x="134" 
d="M85 696c41 0 63 -20 63 -36c0 -44 -72 -109 -93 -109c-29 0 -39 20 -39 20c54 53 63 94 55 110c-4 8 -4 15 14 15z" />
    <glyph glyph-name="quotedblleft" unicode="&#x201c;" horiz-adv-x="208" 
d="M178 557c-41 0 -63 20 -63 36c0 44 72 109 93 109c29 0 39 -20 39 -20c-54 -53 -63 -94 -55 -110c4 -8 4 -15 -14 -15zM64 557c-41 0 -63 20 -63 36c0 44 72 109 93 109c29 0 39 -20 39 -20c-54 -53 -63 -94 -55 -110c4 -8 4 -15 -14 -15z" />
    <glyph glyph-name="quotedblright" unicode="&#x201d;" horiz-adv-x="214" 
d="M69 696c41 0 63 -20 63 -36c0 -44 -72 -109 -93 -109c-29 0 -39 20 -39 20c54 53 63 94 55 110c-4 8 -4 15 14 15zM183 696c41 0 63 -20 63 -36c0 -44 -72 -109 -93 -109c-29 0 -39 20 -39 20c54 53 63 94 55 110c-4 8 -4 15 14 15z" />
    <glyph glyph-name="bullet" unicode="&#x2022;" horiz-adv-x="214" 
d="M88 280c45 0 83 -27 83 -41c0 -16 6 -87 -59 -108c0 0 -54 -8 -73 40c-14 37 27 109 49 109z" />
    <glyph glyph-name="endash" unicode="&#x2013;" horiz-adv-x="383" 
d="M328 205c31 0 39 -40 39 -62c0 -8 -5 -10 -19 -10h-301c-26 0 -28 33 -28 57c0 8 4 15 16 15h293z" />
    <glyph glyph-name="emdash" unicode="&#x2014;" horiz-adv-x="523" 
d="M456 205c31 0 39 -40 39 -62c0 -8 -5 -10 -19 -10h-429c-26 0 -28 33 -28 57c0 8 4 15 16 15h421z" />
    <glyph glyph-name="cent" unicode="&#xa2;" horiz-adv-x="281" 
d="M290 293c19 17 23 40 -5 40c-6 0 -15 -1 -23 -2c-23 -71 -47 -155 -68 -236c31 15 60 38 75 56c26 30 47 -7 29 -40c-15 -30 -57 -67 -119 -82c-5 -25 -11 -50 -14 -73c-4 -27 -1 -27 -9 -29c-22 -7 -51 3 -52 26c1 19 5 43 10 71c-54 7 -89 59 -89 121
c0 110 105 218 189 256c22 71 41 122 46 123c8 2 50 -6 55 -17c1 -3 -10 -38 -27 -92c37 -5 65 -29 65 -71c0 -43 -22 -74 -51 -88c-12 -5 -21 4 -22 9c-4 8 0 20 10 28zM127 87c14 61 32 129 50 194c-38 -35 -71 -84 -70 -144c0 -28 8 -42 20 -50z" />
    <glyph glyph-name="periodcentered" unicode="&#xb7;" horiz-adv-x="147" 
d="M67 291c34 0 63 -21 63 -31c0 -12 4 -66 -45 -82c0 0 -41 -6 -55 30c-11 28 20 83 37 83z" />
    <glyph glyph-name="asciicircum" unicode="^" horiz-adv-x="407" 
d="M375 523c13 -26 -14 -74 -44 -63c-8 3 -112 139 -112 139s-139 -109 -148 -110c-22 -1 -52 31 -34 71c3 6 158 141 186 141c29 1 148 -167 152 -178z" />
    <glyph glyph-name="bar" unicode="|" horiz-adv-x="293" 
d="M333 804c11 2 71 -17 74 -34c4 -21 -234 -543 -317 -853c-11 -41 -5 -41 -16 -43c-33 -6 -73 14 -71 49c32 199 305 876 330 881z" />
    <glyph glyph-name="exclamdown" unicode="&#xa1;" horiz-adv-x="240" 
d="M210 539c-11 14 45 102 66 121c29 23 65 -20 65 -20c-55 -78 -53 -123 -62 -132c-9 -6 -45 3 -69 31zM-20 -33c-18 21 61 316 181 512c22 32 65 26 88 -3c9 -10 5 -7 -17 -51c-157 -329 -143 -468 -163 -485c-14 -12 -80 16 -89 27z" />
    </font>
</defs>
</svg>
